<svg xmlns="http://www.w3.org/2000/svg" xmlns:xlink="http://www.w3.org/1999/xlink" viewBox="0 0 72.33 16.92"><defs><style>.a74229fd-dbbc-44c7-acd6-419326dafc7f{fill:url(#fde69277-f067-430c-a21b-bf887b6204d1);}</style><linearGradient id="fde69277-f067-430c-a21b-bf887b6204d1" x1="-9.46" y1="8.46" x2="60.75" y2="8.46" gradientUnits="userSpaceOnUse"><stop offset="0" stop-color="#0071bc"/><stop offset="0.39" stop-color="#578499"/><stop offset="0.89" stop-color="#c69c6d"/></linearGradient></defs><title>Asset 3</title><g id="aae3fe61-141c-4ded-a601-b6c92e8afe5b" data-name="Layer 2"><g id="fc5e66ac-e65e-4597-ba96-b311c146c168" data-name="Font"><path class="a74229fd-dbbc-44c7-acd6-419326dafc7f" d="M8.18,16.8H5.06v-.43h.6V4.92L4.31,16.8H2.78L1.2,4.92V16.37h.59v.43H0v-.43H.6V.43H0V0H2.54L4.2,13.09,5.64,0H8.18V.43h-.6V16.37h.6Z"/><path class="a74229fd-dbbc-44c7-acd6-419326dafc7f" d="M14.57,14.47a2.28,2.28,0,0,1-.77,1.74,2.72,2.72,0,0,1-1.94.71,2.76,2.76,0,0,1-1.95-.71,2.28,2.28,0,0,1-.77-1.74V6.66a2.28,2.28,0,0,1,.77-1.74,2.76,2.76,0,0,1,1.95-.71,2.72,2.72,0,0,1,1.94.71,2.28,2.28,0,0,1,.77,1.74v4.1H11v4.77q0,1,.84,1c.55,0,.83-.32.83-1V13h1.88Zm-1.88-4.15V5.6c0-.64-.28-1-.83-1S11,5,11,5.6v4.72Z"/><path class="a74229fd-dbbc-44c7-acd6-419326dafc7f" d="M18.5,16.8H15.43v-.43H16V.43h-.6V0h2.46V16.37h.61Z"/><path class="a74229fd-dbbc-44c7-acd6-419326dafc7f" d="M24.79,14.47A2.28,2.28,0,0,1,24,16.21a2.72,2.72,0,0,1-1.94.71,2.76,2.76,0,0,1-1.95-.71,2.28,2.28,0,0,1-.77-1.74V6.66a2.28,2.28,0,0,1,.77-1.74,2.76,2.76,0,0,1,1.95-.71A2.72,2.72,0,0,1,24,4.92a2.28,2.28,0,0,1,.77,1.74Zm-1.88,1.06V5.6c0-.64-.28-1-.83-1s-.85.32-.85,1v9.93c0,.64.29,1,.85,1S22.91,16.17,22.91,15.53Z"/><path class="a74229fd-dbbc-44c7-acd6-419326dafc7f" d="M32.12,16.8H29.66V5.6c0-.61-.23-.91-.7-.91a1.19,1.19,0,0,0-.87.41V16.37h.61v.43H25.62v-.43h.61V4.76h-.61V4.32h2.47v.34a2.07,2.07,0,0,1,1.39-.45c1.36,0,2,.73,2,2.2v10h.6Z"/><path class="a74229fd-dbbc-44c7-acd6-419326dafc7f" d="M38.85,14.36A2.17,2.17,0,0,1,38,16.08a3,3,0,0,1-2,.72H32.61v-.43h.6V.43h-.6V0H36a3,3,0,0,1,2,.72,2.19,2.19,0,0,1,.85,1.73V5.7a2.29,2.29,0,0,1-1.68,2.22,2.35,2.35,0,0,1,1.68,2.24ZM36.93,6.75V1.39a.94.94,0,0,0-.29-.68A.94.94,0,0,0,36,.43h-.83V7.71H36a.9.9,0,0,0,.68-.28A.92.92,0,0,0,36.93,6.75Zm0,8.66V9.11a1,1,0,0,0-1-1h-.83v8.23H36a.9.9,0,0,0,.68-.28A.92.92,0,0,0,36.93,15.41Z"/><path class="a74229fd-dbbc-44c7-acd6-419326dafc7f" d="M45.6,14.47a2.28,2.28,0,0,1-.77,1.74,3,3,0,0,1-3.88,0,2.25,2.25,0,0,1-.78-1.74V6.66A2.25,2.25,0,0,1,41,4.92a3,3,0,0,1,3.88,0,2.28,2.28,0,0,1,.77,1.74Zm-1.88,1.06V5.6c0-.64-.27-1-.83-1s-.84.32-.84,1v9.93q0,1,.84,1C43.45,16.49,43.72,16.17,43.72,15.53Z"/><path class="a74229fd-dbbc-44c7-acd6-419326dafc7f" d="M52.93,16.8H50.47V5.6c0-.61-.23-.91-.7-.91a1.2,1.2,0,0,0-.87.41V16.37h.61v.43H46.43v-.43H47V4.76h-.61V4.32H48.9v.34a2.08,2.08,0,0,1,1.4-.45c1.36,0,2,.73,2,2.2v10h.59Z"/><path class="a74229fd-dbbc-44c7-acd6-419326dafc7f" d="M59.71,16.8H57.28l-1.56-6.11v5.68h.61v.43H53.25v-.43h.61V.43h-.61V0h2.47V9.87l2.41-5.11H57.5V4.32h1.83v.44h-.61L57,8.6l2.11,7.77h.65Z"/><path class="a74229fd-dbbc-44c7-acd6-419326dafc7f" d="M65.82,14.47a2.27,2.27,0,0,1-.76,1.74,3,3,0,0,1-3.89,0,2.28,2.28,0,0,1-.77-1.74V6.66a2.28,2.28,0,0,1,.77-1.74,3,3,0,0,1,3.89,0,2.27,2.27,0,0,1,.76,1.74v4.1H62.27v4.77c0,.64.28,1,.85,1s.83-.32.83-1V13h1.87ZM64,10.32V5.6c0-.64-.28-1-.83-1s-.85.32-.85,1v4.72Z"/><path class="a74229fd-dbbc-44c7-acd6-419326dafc7f" d="M72.33,8.14H70.45V5.6c0-.61-.19-.91-.57-.91a1,1,0,0,0-.75.41V16.37h.61v.43H66.66v-.43h.61V4.76h-.61V4.32h2.47v.34a2,2,0,0,1,1.32-.45c1.25,0,1.88.73,1.88,2.2Z"/><path d="M8.18,16.8H5.06v-.43h.6V4.92L4.31,16.8H2.78L1.2,4.92V16.37h.59v.43H0v-.43H.6V.43H0V0H2.54L4.2,13.09,5.64,0H8.18V.43h-.6V16.37h.6Z"/><path d="M14.57,14.47a2.28,2.28,0,0,1-.77,1.74,2.72,2.72,0,0,1-1.94.71,2.76,2.76,0,0,1-1.95-.71,2.28,2.28,0,0,1-.77-1.74V6.66a2.28,2.28,0,0,1,.77-1.74,2.76,2.76,0,0,1,1.95-.71,2.72,2.72,0,0,1,1.94.71,2.28,2.28,0,0,1,.77,1.74v4.1H11v4.77q0,1,.84,1c.55,0,.83-.32.83-1V13h1.88Zm-1.88-4.15V5.6c0-.64-.28-1-.83-1S11,5,11,5.6v4.72Z"/><path d="M18.5,16.8H15.43v-.43H16V.43h-.6V0h2.46V16.37h.61Z"/><path d="M24.79,14.47A2.28,2.28,0,0,1,24,16.21a2.72,2.72,0,0,1-1.94.71,2.76,2.76,0,0,1-1.95-.71,2.28,2.28,0,0,1-.77-1.74V6.66a2.28,2.28,0,0,1,.77-1.74,2.76,2.76,0,0,1,1.95-.71A2.72,2.72,0,0,1,24,4.92a2.28,2.28,0,0,1,.77,1.74Zm-1.88,1.06V5.6c0-.64-.28-1-.83-1s-.85.32-.85,1v9.93c0,.64.29,1,.85,1S22.91,16.17,22.91,15.53Z"/><path d="M32.12,16.8H29.66V5.6c0-.61-.23-.91-.7-.91a1.19,1.19,0,0,0-.87.41V16.37h.61v.43H25.62v-.43h.61V4.76h-.61V4.32h2.47v.34a2.07,2.07,0,0,1,1.39-.45c1.36,0,2,.73,2,2.2v10h.6Z"/><path d="M38.85,14.36A2.17,2.17,0,0,1,38,16.08a3,3,0,0,1-2,.72H32.61v-.43h.6V.43h-.6V0H36a3,3,0,0,1,2,.72,2.19,2.19,0,0,1,.85,1.73V5.7a2.29,2.29,0,0,1-1.68,2.22,2.35,2.35,0,0,1,1.68,2.24ZM36.93,6.75V1.39a.94.94,0,0,0-.29-.68A.94.94,0,0,0,36,.43h-.83V7.71H36a.9.9,0,0,0,.68-.28A.92.92,0,0,0,36.93,6.75Zm0,8.66V9.11a1,1,0,0,0-1-1h-.83v8.23H36a.9.9,0,0,0,.68-.28A.92.92,0,0,0,36.93,15.41Z"/><path d="M45.6,14.47a2.28,2.28,0,0,1-.77,1.74,3,3,0,0,1-3.88,0,2.25,2.25,0,0,1-.78-1.74V6.66A2.25,2.25,0,0,1,41,4.92a3,3,0,0,1,3.88,0,2.28,2.28,0,0,1,.77,1.74Zm-1.88,1.06V5.6c0-.64-.27-1-.83-1s-.84.32-.84,1v9.93q0,1,.84,1C43.45,16.49,43.72,16.17,43.72,15.53Z"/><path d="M52.93,16.8H50.47V5.6c0-.61-.23-.91-.7-.91a1.2,1.2,0,0,0-.87.41V16.37h.61v.43H46.43v-.43H47V4.76h-.61V4.32H48.9v.34a2.08,2.08,0,0,1,1.4-.45c1.36,0,2,.73,2,2.2v10h.59Z"/><path d="M59.71,16.8H57.28l-1.56-6.11v5.68h.61v.43H53.25v-.43h.61V.43h-.61V0h2.47V9.87l2.41-5.11H57.5V4.32h1.83v.44h-.61L57,8.6l2.11,7.77h.65Z"/><path d="M65.82,14.47a2.27,2.27,0,0,1-.76,1.74,3,3,0,0,1-3.89,0,2.28,2.28,0,0,1-.77-1.74V6.66a2.28,2.28,0,0,1,.77-1.74,3,3,0,0,1,3.89,0,2.27,2.27,0,0,1,.76,1.74v4.1H62.27v4.77c0,.64.28,1,.85,1s.83-.32.83-1V13h1.87ZM64,10.32V5.6c0-.64-.28-1-.83-1s-.85.32-.85,1v4.72Z"/><path d="M72.33,8.14H70.45V5.6c0-.61-.19-.91-.57-.91a1,1,0,0,0-.75.41V16.37h.61v.43H66.66v-.43h.61V4.76h-.61V4.32h2.47v.34a2,2,0,0,1,1.32-.45c1.25,0,1.88.73,1.88,2.2Z"/></g></g></svg>