<svg xmlns="http://www.w3.org/2000/svg" xmlns:xlink="http://www.w3.org/1999/xlink" viewBox="0 0 90.28 18.71"><defs><style>.a5995b02-a051-4bcf-82d9-c21619374811{fill:url(#ecdac23e-3db9-4eb0-a3d5-2256f7f907e3);}.efd6d037-245f-4468-bc8c-9b09406d200e{fill:none;stroke-linecap:round;stroke-miterlimit:10;stroke-width:0.59px;}.b261ac72-3258-43cd-8754-9b7dc16ef9b5,.efd6d037-245f-4468-bc8c-9b09406d200e,.ff7780e1-ac2b-492f-89f7-029c1526ca0e{stroke:#333;}.b261ac72-3258-43cd-8754-9b7dc16ef9b5,.bf71d57d-0cfa-4a57-8021-1bdcf6313116{fill:#649623;}.fb103586-87a5-44af-9153-39a644f6dcde,.ff7780e1-ac2b-492f-89f7-029c1526ca0e{fill:#8cc63f;}.b261ac72-3258-43cd-8754-9b7dc16ef9b5,.ff7780e1-ac2b-492f-89f7-029c1526ca0e{stroke-linejoin:round;stroke-width:0.68px;}.e4685dd0-9566-4f3a-a98e-2fb620035037{fill:#a00;stroke:maroon;stroke-width:0.03px;}.a879bf10-2ec6-4437-ae8e-2aa7b29ea6f3,.e4685dd0-9566-4f3a-a98e-2fb620035037,.e9b8e9f6-8cd4-46d4-b318-4c5b0db3ef2c{fill-rule:evenodd;}.a879bf10-2ec6-4437-ae8e-2aa7b29ea6f3{fill:#e44f30;}.e9b8e9f6-8cd4-46d4-b318-4c5b0db3ef2c{fill:#fc0;}</style><linearGradient id="ecdac23e-3db9-4eb0-a3d5-2256f7f907e3" x1="8.48" y1="9.97" x2="78.7" y2="9.97" gradientUnits="userSpaceOnUse"><stop offset="0" stop-color="#0071bc"/><stop offset="0.39" stop-color="#578499"/><stop offset="0.89" stop-color="#c69c6d"/></linearGradient></defs><title>Asset 5</title><g id="baaf6c7c-6f6d-49b7-9a5e-75bf6f9f634b" data-name="Layer 2"><g id="f93ba5dc-ae0d-4378-8768-fb9f2768c8fc" data-name="Main"><g id="ad8e94e1-6d48-4ef8-af19-3ebe5d08a263" data-name="melonbonker"><path class="a5995b02-a051-4bcf-82d9-c21619374811" d="M26.13,18.31H23v-.43h.6V6.43L22.26,18.31H20.73L19.14,6.43V17.88h.6v.43H18v-.43h.6V1.94H18V1.5h2.54l1.65,13.09L23.59,1.5h2.54v.44h-.6V17.88h.6Z"/><path class="a5995b02-a051-4bcf-82d9-c21619374811" d="M32.52,16a2.31,2.31,0,0,1-.77,1.74,2.76,2.76,0,0,1-1.94.71,2.8,2.8,0,0,1-1.95-.71A2.31,2.31,0,0,1,27.09,16V8.16a2.28,2.28,0,0,1,.77-1.74,2.8,2.8,0,0,1,1.95-.71,2.76,2.76,0,0,1,1.94.71,2.28,2.28,0,0,1,.77,1.74v4.1H29V17c0,.64.29,1,.85,1s.83-.32.83-1V14.49h1.88Zm-1.88-4.15V7.11c0-.64-.28-1-.83-1s-.85.32-.85,1v4.72Z"/><path class="a5995b02-a051-4bcf-82d9-c21619374811" d="M36.45,18.31H33.38v-.43H34V1.94h-.6V1.5h2.46V17.88h.61Z"/><path class="a5995b02-a051-4bcf-82d9-c21619374811" d="M42.73,16A2.3,2.3,0,0,1,42,17.72a3,3,0,0,1-3.89,0A2.31,2.31,0,0,1,37.31,16V8.16a2.28,2.28,0,0,1,.77-1.74,3,3,0,0,1,3.89,0,2.27,2.27,0,0,1,.76,1.74ZM40.86,17V7.11c0-.64-.28-1-.83-1s-.85.32-.85,1V17c0,.64.28,1,.85,1S40.86,17.67,40.86,17Z"/><path class="a5995b02-a051-4bcf-82d9-c21619374811" d="M50.07,18.31H47.61V7.11c0-.61-.24-.92-.7-.92A1.22,1.22,0,0,0,46,6.6V17.88h.61v.43H43.57v-.43h.61V6.26h-.61V5.83H46v.34a2,2,0,0,1,1.39-.46c1.36,0,2,.74,2,2.2v10h.6Z"/><path class="a5995b02-a051-4bcf-82d9-c21619374811" d="M56.8,15.86A2.19,2.19,0,0,1,56,17.59a3,3,0,0,1-2,.72H50.56v-.43h.6V1.94h-.6V1.5h3.35a3,3,0,0,1,2,.73A2.17,2.17,0,0,1,56.8,4V7.2a2.29,2.29,0,0,1-1.68,2.23,2.34,2.34,0,0,1,1.68,2.23ZM54.87,8.25V2.9a.91.91,0,0,0-.28-.68.9.9,0,0,0-.68-.28h-.83V9.22h.83a1,1,0,0,0,1-1Zm0,8.66v-6.3a.91.91,0,0,0-.28-.68.9.9,0,0,0-.68-.28h-.83v8.23h.83a1,1,0,0,0,1-1Z"/><path class="a5995b02-a051-4bcf-82d9-c21619374811" d="M63.55,16a2.31,2.31,0,0,1-.77,1.74,2.76,2.76,0,0,1-1.94.71,2.8,2.8,0,0,1-2-.71A2.31,2.31,0,0,1,58.12,16V8.16a2.28,2.28,0,0,1,.77-1.74,2.8,2.8,0,0,1,2-.71,2.76,2.76,0,0,1,1.94.71,2.28,2.28,0,0,1,.77,1.74ZM61.67,17V7.11c0-.64-.28-1-.83-1s-.84.32-.84,1V17q0,1,.84,1C61.39,18,61.67,17.67,61.67,17Z"/><path class="a5995b02-a051-4bcf-82d9-c21619374811" d="M70.88,18.31H68.42V7.11c0-.61-.23-.92-.7-.92a1.22,1.22,0,0,0-.87.41V17.88h.61v.43H64.38v-.43H65V6.26h-.61V5.83h2.47v.34a2,2,0,0,1,1.4-.46c1.36,0,2,.74,2,2.2v10h.6Z"/><path class="a5995b02-a051-4bcf-82d9-c21619374811" d="M77.66,18.31H75.23l-1.56-6.12v5.69h.61v.43H71.2v-.43h.61V1.94H71.2V1.5h2.47v9.87l2.4-5.11h-.62V5.83h1.83v.43h-.61L74.9,10.11,77,17.88h.65Z"/><path class="a5995b02-a051-4bcf-82d9-c21619374811" d="M83.77,16A2.3,2.3,0,0,1,83,17.72a3,3,0,0,1-3.89,0A2.31,2.31,0,0,1,78.35,16V8.16a2.28,2.28,0,0,1,.77-1.74,3,3,0,0,1,3.89,0,2.27,2.27,0,0,1,.76,1.74v4.1H80.22V17c0,.64.28,1,.85,1s.83-.32.83-1V14.49h1.87ZM81.9,11.83V7.11c0-.64-.28-1-.83-1s-.85.32-.85,1v4.72Z"/><path class="a5995b02-a051-4bcf-82d9-c21619374811" d="M90.28,9.65H88.4V7.11c0-.61-.19-.92-.57-.92a1.06,1.06,0,0,0-.75.41V17.88h.61v.43H84.61v-.43h.6V6.26h-.6V5.83h2.47v.34a1.91,1.91,0,0,1,1.32-.46c1.25,0,1.88.74,1.88,2.2Z"/><path d="M26.13,18.31H23v-.43h.6V6.43L22.26,18.31H20.73L19.14,6.43V17.88h.6v.43H18v-.43h.6V1.94H18V1.5h2.54l1.65,13.09L23.59,1.5h2.54v.44h-.6V17.88h.6Z"/><path d="M32.52,16a2.31,2.31,0,0,1-.77,1.74,2.76,2.76,0,0,1-1.94.71,2.8,2.8,0,0,1-1.95-.71A2.31,2.31,0,0,1,27.09,16V8.16a2.28,2.28,0,0,1,.77-1.74,2.8,2.8,0,0,1,1.95-.71,2.76,2.76,0,0,1,1.94.71,2.28,2.28,0,0,1,.77,1.74v4.1H29V17c0,.64.29,1,.85,1s.83-.32.83-1V14.49h1.88Zm-1.88-4.15V7.11c0-.64-.28-1-.83-1s-.85.32-.85,1v4.72Z"/><path d="M36.45,18.31H33.38v-.43H34V1.94h-.6V1.5h2.46V17.88h.61Z"/><path d="M42.73,16A2.3,2.3,0,0,1,42,17.72a3,3,0,0,1-3.89,0A2.31,2.31,0,0,1,37.31,16V8.16a2.28,2.28,0,0,1,.77-1.74,3,3,0,0,1,3.89,0,2.27,2.27,0,0,1,.76,1.74ZM40.86,17V7.11c0-.64-.28-1-.83-1s-.85.32-.85,1V17c0,.64.28,1,.85,1S40.86,17.67,40.86,17Z"/><path d="M50.07,18.31H47.61V7.11c0-.61-.24-.92-.7-.92A1.22,1.22,0,0,0,46,6.6V17.88h.61v.43H43.57v-.43h.61V6.26h-.61V5.83H46v.34a2,2,0,0,1,1.39-.46c1.36,0,2,.74,2,2.2v10h.6Z"/><path d="M56.8,15.86A2.19,2.19,0,0,1,56,17.59a3,3,0,0,1-2,.72H50.56v-.43h.6V1.94h-.6V1.5h3.35a3,3,0,0,1,2,.73A2.17,2.17,0,0,1,56.8,4V7.2a2.29,2.29,0,0,1-1.68,2.23,2.34,2.34,0,0,1,1.68,2.23ZM54.87,8.25V2.9a.91.91,0,0,0-.28-.68.9.9,0,0,0-.68-.28h-.83V9.22h.83a1,1,0,0,0,1-1Zm0,8.66v-6.3a.91.91,0,0,0-.28-.68.9.9,0,0,0-.68-.28h-.83v8.23h.83a1,1,0,0,0,1-1Z"/><path d="M63.55,16a2.31,2.31,0,0,1-.77,1.74,2.76,2.76,0,0,1-1.94.71,2.8,2.8,0,0,1-2-.71A2.31,2.31,0,0,1,58.12,16V8.16a2.28,2.28,0,0,1,.77-1.74,2.8,2.8,0,0,1,2-.71,2.76,2.76,0,0,1,1.94.71,2.28,2.28,0,0,1,.77,1.74ZM61.67,17V7.11c0-.64-.28-1-.83-1s-.84.32-.84,1V17q0,1,.84,1C61.39,18,61.67,17.67,61.67,17Z"/><path d="M70.88,18.31H68.42V7.11c0-.61-.23-.92-.7-.92a1.22,1.22,0,0,0-.87.41V17.88h.61v.43H64.38v-.43H65V6.26h-.61V5.83h2.47v.34a2,2,0,0,1,1.4-.46c1.36,0,2,.74,2,2.2v10h.6Z"/><path d="M77.66,18.31H75.23l-1.56-6.12v5.69h.61v.43H71.2v-.43h.61V1.94H71.2V1.5h2.47v9.87l2.4-5.11h-.62V5.83h1.83v.43h-.61L74.9,10.11,77,17.88h.65Z"/><path d="M83.77,16A2.3,2.3,0,0,1,83,17.72a3,3,0,0,1-3.89,0A2.31,2.31,0,0,1,78.35,16V8.16a2.28,2.28,0,0,1,.77-1.74,3,3,0,0,1,3.89,0,2.27,2.27,0,0,1,.76,1.74v4.1H80.22V17c0,.64.28,1,.85,1s.83-.32.83-1V14.49h1.87ZM81.9,11.83V7.11c0-.64-.28-1-.83-1s-.85.32-.85,1v4.72Z"/><path d="M90.28,9.65H88.4V7.11c0-.61-.19-.92-.57-.92a1.06,1.06,0,0,0-.75.41V17.88h.61v.43H84.61v-.43h.6V6.26h-.6V5.83h2.47v.34a1.91,1.91,0,0,1,1.32-.46c1.25,0,1.88.74,1.88,2.2Z"/></g><g id="a0ab2a8b-dbb8-471b-b96d-47186a7e01d6" data-name="melon"><path class="efd6d037-245f-4468-bc8c-9b09406d200e" d="M13.85,8.87a1,1,0,0,1-.26-.8,3.51,3.51,0,0,1,.62-2,2.1,2.1,0,0,1,1.71-.93,1.26,1.26,0,0,1,1,.44.93.93,0,0,1,.05,1.08.81.81,0,0,1-1.14,0,2,2,0,0,1-.59-1.18,5.31,5.31,0,0,1,.08-2.41"/><path class="bf71d57d-0cfa-4a57-8021-1bdcf6313116" d="M15.46,9.2h0a.25.25,0,0,0,0,.08h0a2,2,0,0,0,0-.24s0,.06,0,.09A.13.13,0,0,0,15.46,9.2Z"/><path class="bf71d57d-0cfa-4a57-8021-1bdcf6313116" d="M15.3,8.4s0,0,0-.06l0,.05Z"/><path class="bf71d57d-0cfa-4a57-8021-1bdcf6313116" d="M15.53,10.29v0Z"/><path class="bf71d57d-0cfa-4a57-8021-1bdcf6313116" d="M15.4,8.84l0-.14s0,.08,0,.12Z"/><path class="bf71d57d-0cfa-4a57-8021-1bdcf6313116" d="M14.87,7.18l0,.09.07.16-.12-.27v0Z"/><path class="bf71d57d-0cfa-4a57-8021-1bdcf6313116" d="M15.52,9.84a.28.28,0,0,0,0-.09v.09Z"/><path class="bf71d57d-0cfa-4a57-8021-1bdcf6313116" d="M15.53,10.06a1.62,1.62,0,0,0,0-.22.66.66,0,0,0,0,.14Z"/><path class="bf71d57d-0cfa-4a57-8021-1bdcf6313116" d="M15.51,9.68l0-.26a.17.17,0,0,1,0,.07C15.5,9.56,15.5,9.62,15.51,9.68Z"/><path class="bf71d57d-0cfa-4a57-8021-1bdcf6313116" d="M15.52,10.73c0-.1,0-.19,0-.29a.57.57,0,0,1,0,.13Z"/><path class="bf71d57d-0cfa-4a57-8021-1bdcf6313116" d="M15.53,10.4v0Z"/><path class="fb103586-87a5-44af-9153-39a644f6dcde" d="M15.53,10.29v0Z"/><path class="fb103586-87a5-44af-9153-39a644f6dcde" d="M15.52,10.73s0,.07,0,.1S15.52,10.77,15.52,10.73Z"/><path class="fb103586-87a5-44af-9153-39a644f6dcde" d="M15,7.53a1,1,0,0,1,0-.1v0Z"/><path class="fb103586-87a5-44af-9153-39a644f6dcde" d="M15.41,8.93V9a.69.69,0,0,1,0-.13h0Z"/><path class="fb103586-87a5-44af-9153-39a644f6dcde" d="M15.48,9.4v0c0-.05,0-.09,0-.13h0S15.48,9.37,15.48,9.4Z"/><path class="fb103586-87a5-44af-9153-39a644f6dcde" d="M15.52,9.84Z"/><path class="fb103586-87a5-44af-9153-39a644f6dcde" d="M15.33,8.51l0-.11a.64.64,0,0,0,0,.07Z"/><path class="fb103586-87a5-44af-9153-39a644f6dcde" d="M15.48,11.18s0,.06,0,.09S15.48,11.21,15.48,11.18Z"/><path class="fb103586-87a5-44af-9153-39a644f6dcde" d="M14.84,7.1a.59.59,0,0,1,0-.08V7Z"/><path class="fb103586-87a5-44af-9153-39a644f6dcde" d="M15.31,8.46h0a.64.64,0,0,1,0-.07h0S15.31,8.44,15.31,8.46Z"/><path class="fb103586-87a5-44af-9153-39a644f6dcde" d="M15.39,8.82v0h0v0Z"/><path class="fb103586-87a5-44af-9153-39a644f6dcde" d="M15.47,9.3h0Z"/><path class="fb103586-87a5-44af-9153-39a644f6dcde" d="M15.49,9.49a.17.17,0,0,0,0-.07v0A.28.28,0,0,1,15.49,9.49Z"/><path class="fb103586-87a5-44af-9153-39a644f6dcde" d="M14.91,7.27l.08.18v0l-.07-.16Z"/><path class="fb103586-87a5-44af-9153-39a644f6dcde" d="M15.53,10a.66.66,0,0,1,0-.14h0V9.77A1.48,1.48,0,0,0,15.53,10Z"/><path class="fb103586-87a5-44af-9153-39a644f6dcde" d="M15.53,10.4v0Z"/><path class="bf71d57d-0cfa-4a57-8021-1bdcf6313116" d="M15.53,10.42v0Z"/><path class="bf71d57d-0cfa-4a57-8021-1bdcf6313116" d="M15.43,9.05s0-.06,0-.08h0A.2.2,0,0,1,15.43,9.05Z"/><path class="bf71d57d-0cfa-4a57-8021-1bdcf6313116" d="M15.53,10.06v0Z"/><path class="bf71d57d-0cfa-4a57-8021-1bdcf6313116" d="M15.51,9.68v0Z"/><path class="bf71d57d-0cfa-4a57-8021-1bdcf6313116" d="M15.28,8.34v0h0Z"/><path class="bf71d57d-0cfa-4a57-8021-1bdcf6313116" d="M15,7.56v0Z"/><path class="bf71d57d-0cfa-4a57-8021-1bdcf6313116" d="M14.86,7.16l0-.06s0,0,0,.05Z"/><path class="bf71d57d-0cfa-4a57-8021-1bdcf6313116" d="M15.37,8.7s0-.06,0-.08v0Z"/><path class="bf71d57d-0cfa-4a57-8021-1bdcf6313116" d="M15.53,10.17v0Z"/><path class="bf71d57d-0cfa-4a57-8021-1bdcf6313116" d="M15.52,9.77v0Z"/><path class="bf71d57d-0cfa-4a57-8021-1bdcf6313116" d="M15.46,9.2h0s0,.05,0,.08A.25.25,0,0,1,15.46,9.2Z"/><path class="bf71d57d-0cfa-4a57-8021-1bdcf6313116" d="M14.87,7.18v0h0Z"/><path class="bf71d57d-0cfa-4a57-8021-1bdcf6313116" d="M15.52,10.57a.57.57,0,0,0,0-.13v0A.91.91,0,0,1,15.52,10.57Z"/><path class="bf71d57d-0cfa-4a57-8021-1bdcf6313116" d="M15.39,8.81h0s0-.08,0-.12l0-.06A.85.85,0,0,1,15.39,8.81Z"/><path class="bf71d57d-0cfa-4a57-8021-1bdcf6313116" d="M15.43,9s0,.07,0,.1,0-.06,0-.09a.2.2,0,0,0,0-.07Z"/><path class="bf71d57d-0cfa-4a57-8021-1bdcf6313116" d="M15.29,8.38h0l0-.05v0Z"/><path class="bf71d57d-0cfa-4a57-8021-1bdcf6313116" d="M15,7.56h0v0l0-.08S15,7.52,15,7.56Z"/><path class="bf71d57d-0cfa-4a57-8021-1bdcf6313116" d="M15.47,9.3s0,.07,0,.1S15.47,9.33,15.47,9.3Z"/><path class="bf71d57d-0cfa-4a57-8021-1bdcf6313116" d="M14.86,7.15s0,0,0-.05l0-.06A1.17,1.17,0,0,0,14.86,7.15Z"/><path class="bf71d57d-0cfa-4a57-8021-1bdcf6313116" d="M15.41,8.94V9h0v0Z"/><path class="bf71d57d-0cfa-4a57-8021-1bdcf6313116" d="M15.39,8.81h0Z"/><path class="bf71d57d-0cfa-4a57-8021-1bdcf6313116" d="M15.41,8.94a.44.44,0,0,1,0,.1.13.13,0,0,0,0-.06Z"/><path class="bf71d57d-0cfa-4a57-8021-1bdcf6313116" d="M15,7.45l-.08-.18.12.29S15,7.49,15,7.45Z"/><path class="bf71d57d-0cfa-4a57-8021-1bdcf6313116" d="M15.29,8.38l0,.08s0,0,0-.07Z"/><path class="fb103586-87a5-44af-9153-39a644f6dcde" d="M15.35,8.62a.43.43,0,0,1,0-.11v0S15.34,8.59,15.35,8.62Z"/><path class="fb103586-87a5-44af-9153-39a644f6dcde" d="M15,7.57h0Z"/><path class="fb103586-87a5-44af-9153-39a644f6dcde" d="M14.91,7.27l0-.09h0l0,.07Z"/><path class="fb103586-87a5-44af-9153-39a644f6dcde" d="M15.18,8c0-.14-.09-.27-.14-.41h0C15.09,7.7,15.13,7.84,15.18,8Z"/><path class="fb103586-87a5-44af-9153-39a644f6dcde" d="M15.46,9.2v0Z"/><path class="fb103586-87a5-44af-9153-39a644f6dcde" d="M15.32,8.5v0Z"/><path class="fb103586-87a5-44af-9153-39a644f6dcde" d="M15.4,8.85v0Z"/><path class="fb103586-87a5-44af-9153-39a644f6dcde" d="M15.39,8.82l0,.09V8.82Z"/><path class="fb103586-87a5-44af-9153-39a644f6dcde" d="M14.91,7.27h0v0Z"/><path class="fb103586-87a5-44af-9153-39a644f6dcde" d="M15.31,8.46v0Z"/><path class="fb103586-87a5-44af-9153-39a644f6dcde" d="M15.33,8.54a.3.3,0,0,1,0,.1v0s0-.06,0-.09Z"/><path class="fb103586-87a5-44af-9153-39a644f6dcde" d="M15,7.56Z"/><path class="fb103586-87a5-44af-9153-39a644f6dcde" d="M14.87,7.18l0,.07Z"/><path class="fb103586-87a5-44af-9153-39a644f6dcde" d="M15.45,9.14s0-.06,0-.1a.88.88,0,0,1,0,.16h0Z"/><path class="fb103586-87a5-44af-9153-39a644f6dcde" d="M15.28,8.31c0-.11-.07-.22-.1-.33,0,.13.08.26.11.4Z"/><path class="fb103586-87a5-44af-9153-39a644f6dcde" d="M15.33,8.54l.06.27a.85.85,0,0,0,0-.17A.3.3,0,0,0,15.33,8.54Z"/><path class="fb103586-87a5-44af-9153-39a644f6dcde" d="M15,7.56Z"/><path class="fb103586-87a5-44af-9153-39a644f6dcde" d="M15.41,8.91v0h0Z"/><path class="fb103586-87a5-44af-9153-39a644f6dcde" d="M15.32,8.5v0h0Z"/><path class="b261ac72-3258-43cd-8754-9b7dc16ef9b5" d="M.34,11.05V11h0a5.44,5.44,0,0,1,0-.57c.09-.13.17-.26.25-.4.3-.53.37-1.32.83-1.81A10.38,10.38,0,0,1,2.84,6.88a12.3,12.3,0,0,1,1.62-1,14.52,14.52,0,0,1,1.76-.59A14.61,14.61,0,0,1,8,4.6a11.07,11.07,0,0,1,1.83-.3c.63,0,1.23.51,1.81.59s1.12-.11,1.61,0A7.29,7.29,0,0,0,5.65,3.48,8.18,8.18,0,0,0,.34,11.27v-.22Z"/><path class="fb103586-87a5-44af-9153-39a644f6dcde" d="M.34,11.31c0,.07,0,.15,0,.22v-.16A.13.13,0,0,1,.34,11.31Z"/><path class="fb103586-87a5-44af-9153-39a644f6dcde" d="M.82,13.74a.36.36,0,0,0,0,.09h0Z"/><path class="fb103586-87a5-44af-9153-39a644f6dcde" d="M.35,11.54v.05h0Z"/><path class="fb103586-87a5-44af-9153-39a644f6dcde" d="M.57,12.93h0v0Z"/><path class="fb103586-87a5-44af-9153-39a644f6dcde" d="M.57,13a.07.07,0,0,1,0,0v0Z"/><path class="fb103586-87a5-44af-9153-39a644f6dcde" d="M1.26,14.7h0Z"/><path class="fb103586-87a5-44af-9153-39a644f6dcde" d="M1.47,15.05a.35.35,0,0,0,.05.08l0-.05Z"/><path class="fb103586-87a5-44af-9153-39a644f6dcde" d="M1.44,15l0,0v0Z"/><path class="fb103586-87a5-44af-9153-39a644f6dcde" d="M1.28,14.74a.41.41,0,0,1,.05.09l0-.05Z"/><path class="b261ac72-3258-43cd-8754-9b7dc16ef9b5" d="M12.74,14l0,0a11.45,11.45,0,0,1-1.44,1.11A13.35,13.35,0,0,1,9.61,16a14.26,14.26,0,0,1-1.72.68,11.31,11.31,0,0,1-1.83.08,9.81,9.81,0,0,1-1.81-.06,7,7,0,0,1-1.71-.57l-.43-.17a6.79,6.79,0,0,0,2,1.58,7.37,7.37,0,0,0,6.15.39,8.24,8.24,0,0,0,5.18-6.17,6.81,6.81,0,0,1-.92,1.49C14.07,13.65,13.26,13.64,12.74,14Z"/><path class="b261ac72-3258-43cd-8754-9b7dc16ef9b5" d="M15.47,11.27c0,.15-.05.29-.07.44h0C15.43,11.56,15.45,11.41,15.47,11.27Z"/><path class="fb103586-87a5-44af-9153-39a644f6dcde" d="M1.65,15.33h0l.07.09,0-.05Z"/><path class="fb103586-87a5-44af-9153-39a644f6dcde" d="M1.92,15.69h0c.06.07.12.15.19.22s-.13-.15-.19-.22Z"/><path class="fb103586-87a5-44af-9153-39a644f6dcde" d="M.45,12.36v0h0Z"/><path class="fb103586-87a5-44af-9153-39a644f6dcde" d="M1,14.09a1,1,0,0,1,0,.1v0Z"/><path class="fb103586-87a5-44af-9153-39a644f6dcde" d="M.39,11.93a1.1,1.1,0,0,0,0,.18s0,0,0-.07S.39,12,.39,11.93Z"/><path class="fb103586-87a5-44af-9153-39a644f6dcde" d="M.48,12.55s0,.06,0,.09a.64.64,0,0,0,0-.07Z"/><path class="fb103586-87a5-44af-9153-39a644f6dcde" d="M1.11,14.42a.31.31,0,0,1,0,.1l0,0Z"/><path class="fb103586-87a5-44af-9153-39a644f6dcde" d="M.42,12.2s0,0,0,.07V12.2Z"/><path class="fb103586-87a5-44af-9153-39a644f6dcde" d="M.36,11.6c0,.1,0,.2,0,.3,0-.07,0-.14,0-.21Z"/><path class="fb103586-87a5-44af-9153-39a644f6dcde" d="M2.11,15.91Z"/><path class="fb103586-87a5-44af-9153-39a644f6dcde" d="M.45,12.36a.29.29,0,0,1,0-.09A.29.29,0,0,0,.45,12.36Z"/><path class="fb103586-87a5-44af-9153-39a644f6dcde" d="M1.47,15.05h0Z"/><path class="fb103586-87a5-44af-9153-39a644f6dcde" d="M.39,11.93v0Z"/><path class="fb103586-87a5-44af-9153-39a644f6dcde" d="M1.28,14.74l0,0Z"/><path class="fb103586-87a5-44af-9153-39a644f6dcde" d="M13.51,5.16l.07.08Z"/><path class="fb103586-87a5-44af-9153-39a644f6dcde" d="M.35,11.54h0Z"/><path class="fb103586-87a5-44af-9153-39a644f6dcde" d="M13.21,4.87Z"/><path class="fb103586-87a5-44af-9153-39a644f6dcde" d="M.94,14.05l0,0v0Z"/><path class="fb103586-87a5-44af-9153-39a644f6dcde" d="M.58,13v0h0Z"/><path class="fb103586-87a5-44af-9153-39a644f6dcde" d="M.81,13.72v0Z"/><path class="fb103586-87a5-44af-9153-39a644f6dcde" d="M.5,12.64s0,0,0,.07h0S.5,12.66.5,12.64Z"/><path class="fb103586-87a5-44af-9153-39a644f6dcde" d="M1.09,14.38l0,0v0Z"/><path class="fb103586-87a5-44af-9153-39a644f6dcde" d="M.42,12.22a.09.09,0,0,1,0,0,.29.29,0,0,0,0,.09h0Z"/><path class="fb103586-87a5-44af-9153-39a644f6dcde" d="M.57,12.93Z"/><path class="fb103586-87a5-44af-9153-39a644f6dcde" d="M1.1,14.39v0l0,.06Z"/><path class="fb103586-87a5-44af-9153-39a644f6dcde" d="M1.26,14.7h0l0,0,0,0Z"/><path class="fb103586-87a5-44af-9153-39a644f6dcde" d="M.58,13V13S.58,13,.58,13Z"/><path class="fb103586-87a5-44af-9153-39a644f6dcde" d="M.34,11.25v0Z"/><path class="fb103586-87a5-44af-9153-39a644f6dcde" d="M.81,13.72v0l0,.08A1,1,0,0,1,.81,13.72Z"/><path class="fb103586-87a5-44af-9153-39a644f6dcde" d="M.48,12.57a.64.64,0,0,1,0,.07s0,0,0,.06Z"/><path class="fb103586-87a5-44af-9153-39a644f6dcde" d="M1,14.06v0l0,.07Z"/><path class="fb103586-87a5-44af-9153-39a644f6dcde" d="M.35,11.37v.16h0v-.17Z"/><path class="fb103586-87a5-44af-9153-39a644f6dcde" d="M1.65,15.33l0,0Z"/><path class="ff7780e1-ac2b-492f-89f7-029c1526ca0e" d="M14.8,7l-.14-.27,0-.06,0-.06-.16-.26,0-.07h0s0,0,0,0h0l-.22-.32,0,0-.08-.1-.27-.34-.21-.23-.07-.08-.3-.29h0c-.49-.09-1.07.09-1.61,0s-1.18-.63-1.81-.59A11.18,11.18,0,0,0,8,4.6a15.19,15.19,0,0,0-1.73.69,14.52,14.52,0,0,0-1.76.59,12.3,12.3,0,0,0-1.62,1,11.11,11.11,0,0,0-1.4,1.33C1,8.7.92,9.49.62,10c-.08.14-.16.27-.25.4a5.44,5.44,0,0,0,0,.57l.23-.22c.42-.37,1.1-.43,1.64-.79S3,8.93,3.53,8.62s1.21-.12,1.78-.38,1-.62,1.59-.83S8,7,8.59,6.88s1.15-.34,1.71-.46S11.46,6,12,5.91s1.22.32,1.76.33l.49,0h.13v0a.21.21,0,0,0,0,.06l.16.28a.56.56,0,0,0,.05.08v0l.14.27Z"/><path class="fb103586-87a5-44af-9153-39a644f6dcde" d="M.36,11.69c0,.07,0,.14,0,.21v0S.4,12,.4,12,.37,11.81.36,11.69Z"/><path class="fb103586-87a5-44af-9153-39a644f6dcde" d="M1.45,15v0h0l0,0Z"/><path class="ff7780e1-ac2b-492f-89f7-029c1526ca0e" d="M15.52,10.78a.08.08,0,0,0,0,0,3,3,0,0,1-1.28.36,1.65,1.65,0,0,0-.53.22c-.47.32-.76,1.06-1.31,1.36s-1.19.2-1.76.46-1,.71-1.56.92S8,14.85,7.42,15s-1.21.25-1.77.37a16.31,16.31,0,0,1-1.79.14,13.18,13.18,0,0,1-1.79.16H1.92c.06.07.12.15.19.22h0l.43.17a7.09,7.09,0,0,0,1.72.57,9.67,9.67,0,0,0,1.8.06,11.31,11.31,0,0,0,1.83-.08A14.26,14.26,0,0,0,9.61,16a13.35,13.35,0,0,0,1.66-.78,11.45,11.45,0,0,0,1.44-1.11l0,0c.52-.4,1.33-.39,1.74-.84a6.88,6.88,0,0,0,.92-1.5c0-.14,0-.29.07-.43s0-.06,0-.09l0-.35s0-.06,0-.1v0Z"/><path class="fb103586-87a5-44af-9153-39a644f6dcde" d="M.42,12.2s0-.06,0-.09S.42,12.17.42,12.2Z"/><path class="fb103586-87a5-44af-9153-39a644f6dcde" d="M.34,11.31v0Z"/><path class="fb103586-87a5-44af-9153-39a644f6dcde" d="M.92,14l0-.06,0-.1a1.43,1.43,0,0,0,.08.22h0S.92,14,.92,14Z"/><path class="fb103586-87a5-44af-9153-39a644f6dcde" d="M.36,11.6h0Z"/><path class="fb103586-87a5-44af-9153-39a644f6dcde" d="M1.08,14.35h0A1,1,0,0,0,1,14.19l.09.19v0Z"/><path class="fb103586-87a5-44af-9153-39a644f6dcde" d="M.51,12.71a1.6,1.6,0,0,1,.05.21s0-.08,0-.12Z"/><path class="fb103586-87a5-44af-9153-39a644f6dcde" d="M1.48,15.08l0,.05.12.19h0Z"/><path class="fb103586-87a5-44af-9153-39a644f6dcde" d="M.85,13.82h0l0,.1S.86,13.85.85,13.82Z"/><path class="fb103586-87a5-44af-9153-39a644f6dcde" d="M.4,12v.07s0,.06,0,.09v0C.41,12.16.41,12.1.4,12Z"/><path class="fb103586-87a5-44af-9153-39a644f6dcde" d="M1.92,15.69l-.25-.33,0,.05.21.28Z"/><path class="fb103586-87a5-44af-9153-39a644f6dcde" d="M1.31,14.78l0,.05a1.74,1.74,0,0,1,.11.18h0C1.4,14.94,1.35,14.86,1.31,14.78Z"/><path class="fb103586-87a5-44af-9153-39a644f6dcde" d="M1.24,14.66h0v0l-.09-.16,0,0,.1.18Z"/><path class="fb103586-87a5-44af-9153-39a644f6dcde" d="M1,14.16v0Z"/><path class="fb103586-87a5-44af-9153-39a644f6dcde" d="M.48,12.53h0l0-.15h0l0,.17v0Z"/><path class="fb103586-87a5-44af-9153-39a644f6dcde" d="M.54,12.8s0,.08,0,.12h0Z"/><path class="fb103586-87a5-44af-9153-39a644f6dcde" d="M.34,11.25v.06a.13.13,0,0,0,0,.06A.49.49,0,0,1,.34,11.25Z"/><path class="fb103586-87a5-44af-9153-39a644f6dcde" d="M.35,11.58h0v.09A.45.45,0,0,0,.35,11.58Z"/><path class="fb103586-87a5-44af-9153-39a644f6dcde" d="M.34,11v0Z"/><path class="fb103586-87a5-44af-9153-39a644f6dcde" d="M.89,13.93l0,.06v0Z"/><path class="fb103586-87a5-44af-9153-39a644f6dcde" d="M.94,14H1Z"/><path class="fb103586-87a5-44af-9153-39a644f6dcde" d="M.81,13.72Z"/><path class="fb103586-87a5-44af-9153-39a644f6dcde" d="M1.07,14.34h0Z"/><path class="fb103586-87a5-44af-9153-39a644f6dcde" d="M1.08,14.35h0v0h0Z"/><path class="fb103586-87a5-44af-9153-39a644f6dcde" d="M.51,12.7h0l0,.09Z"/><path class="fb103586-87a5-44af-9153-39a644f6dcde" d="M.59,13Z"/><path class="fb103586-87a5-44af-9153-39a644f6dcde" d="M.94,14v0l0,.1a1.42,1.42,0,0,1,.08.18h0A2.92,2.92,0,0,1,.94,14Z"/><path class="fb103586-87a5-44af-9153-39a644f6dcde" d="M.51,12.7l0,.1,0,.13h0a2.59,2.59,0,0,1-.09-.4v0Z"/><path class="fb103586-87a5-44af-9153-39a644f6dcde" d="M.59,13v0Z"/><path class="fb103586-87a5-44af-9153-39a644f6dcde" d="M.81,13.72h0a1,1,0,0,0,0,.1s0,.07,0,.11l0,0C.88,13.89.84,13.81.81,13.72Z"/><path class="b261ac72-3258-43cd-8754-9b7dc16ef9b5" d="M14.86,7.15a1.17,1.17,0,0,1,0-.11c0-.09-.09-.18-.14-.27v0a.25.25,0,0,1,0-.07l-.18-.3,0-.07h-.13a3.87,3.87,0,0,0-.49,0c-.54,0-1.13-.4-1.76-.33s-1.11.39-1.72.51-1.12.29-1.71.46-1.12.31-1.69.53S5.84,8,5.31,8.24,4,8.35,3.53,8.62s-.85,1-1.32,1.36S1,10.4.57,10.77L.34,11v.26a.49.49,0,0,0,0,.12v.21a.45.45,0,0,1,0,.11c0,.12,0,.24,0,.35s0,.12,0,.18l0,.16,0,.15a1.56,1.56,0,0,0,.5-.17c.49-.26.8-1.08,1.38-1.36s1.17-.25,1.75-.51,1-.59,1.61-.82,1.3.14,1.87-.08,1-.76,1.58-.95,1.07-.72,1.62-.89,1.21-.22,1.76-.37,1.29.11,1.82,0l.14,0a2.67,2.67,0,0,0,.36-.14Z"/><path class="b261ac72-3258-43cd-8754-9b7dc16ef9b5" d="M15.53,10.17V10a1.48,1.48,0,0,1,0-.21l0-.28a.28.28,0,0,0,0-.09s0-.07,0-.1v0s0,0,0-.08l-.37.21a4.5,4.5,0,0,0-.56.37,5.56,5.56,0,0,1-1,.65c-.52.25-1.21.14-1.79.39s-1,.8-1.55,1-1.29-.12-1.86.09-1.09.59-1.64.78-1.24.07-1.79.25-1,1.1-1.53,1.25-1.23.28-1.76.4a1.69,1.69,0,0,1-.38,0l0,0,.19.32,0,.06.17.25,0,0,.25.33h.15a13.18,13.18,0,0,0,1.79-.16,16.31,16.31,0,0,0,1.79-.14c.56-.12,1.18-.2,1.77-.37s1-.66,1.62-.88,1-.68,1.56-.92,1.25-.18,1.76-.46.84-1,1.31-1.36a1.65,1.65,0,0,1,.53-.22,3,3,0,0,0,1.28-.36.08.08,0,0,1,0,0v-.2a1.09,1.09,0,0,0,0-.18v-.23Z"/><path class="fb103586-87a5-44af-9153-39a644f6dcde" d="M1.1,14.39l0,.09-.06-.13Z"/><path class="fb103586-87a5-44af-9153-39a644f6dcde" d="M.57,13v0Z"/><path class="fb103586-87a5-44af-9153-39a644f6dcde" d="M.57,12.93h0v0h0Z"/><path class="fb103586-87a5-44af-9153-39a644f6dcde" d="M.57,13v0h0Z"/><path class="fb103586-87a5-44af-9153-39a644f6dcde" d="M1.08,14.35Z"/><path class="fb103586-87a5-44af-9153-39a644f6dcde" d="M.94,14l0,0Z"/><path class="fb103586-87a5-44af-9153-39a644f6dcde" d="M.48,12.53h0Z"/><path class="fb103586-87a5-44af-9153-39a644f6dcde" d="M1.24,14.66h0v0Z"/><path class="fb103586-87a5-44af-9153-39a644f6dcde" d="M.92,14l0,0h0l0-.07Z"/><path class="fb103586-87a5-44af-9153-39a644f6dcde" d="M1.08,14.35Z"/><path class="ff7780e1-ac2b-492f-89f7-029c1526ca0e" d="M15.43,9a.44.44,0,0,0,0-.1.5.5,0,0,0,0-.12h0l-.06-.27V8.46a.19.19,0,0,0,0-.08c0-.14-.07-.27-.11-.4L15,7.56h0l-.12-.29v0l0-.07-.36.14-.14,0c-.53.12-1.2-.16-1.83,0s-1.16.19-1.75.38-1,.68-1.62.88-1,.75-1.58,1-1.32-.14-1.87.08-1.08.59-1.61.82-1.23.26-1.75.51S1.47,12.1,1,12.36a1.33,1.33,0,0,1-.5.16h0c0,.13.05.27.08.4l0,.05c0,.13.07.26.11.4l.12.34c0,.09.07.17.1.25l0,.08a6.45,6.45,0,0,0,.29.59v0a1.64,1.64,0,0,0,.38,0c.53-.12,1.14-.23,1.76-.4S4.32,13.15,4.91,13s1.2-.05,1.79-.25,1.06-.56,1.64-.78,1.32.13,1.86-.09,1-.8,1.55-1,1.27-.14,1.79-.39a5.56,5.56,0,0,0,1-.65,4.5,4.5,0,0,1,.56-.37l.37-.21a.88.88,0,0,0,0-.16Z"/></g><g id="be1de66c-6268-484f-b31f-b67b290cf029" data-name="explosion"><g id="f16f622a-09e2-40c6-a0d8-0ab0af6b9dae" data-name="a54e66ae-e8f4-4794-9874-685592507550"><g id="fc902227-164f-4114-85a8-2ef2933d4913" data-name="e6e344f0-7cfb-4d80-86d7-cde66bd699d7"><g id="b0a9b73b-f01b-4013-898d-ac01d26a3ac4" data-name="b7e5dd2d-f27b-4888-adf3-dab400b37996"><g id="e8f659e0-e7df-47a2-83d3-16e7ea8ad41f" data-name="bb4bb501-c826-4dad-9402-f1bd0892e6ad"><g id="e219b0a0-c079-4ef2-85f9-929ac3cee7b9" data-name="fd78bb0d-0e50-486c-b988-3efa120b25c5"><path id="a36f2582-8309-4a07-a81a-57bdb951711d" data-name="a7f6ec94-668f-46d7-b100-fe47325b8008" class="e4685dd0-9566-4f3a-a98e-2fb620035037" d="M13.63.24s1,1.34,1,1.26-.07-1,0-.78c.66,1.57.33,1.21.88.25,0,0-.09,1.16,0,.94L17.26,0,16,2c.16,0,1.79-.39,1,0-.41.29-1.2.66-.93.63.43.18,1.06.26.49.28s-.72,0-.55.09c.57.38,2.45,1.31,1.22.81-2-.7-1.4-.58-.92.27-1-.52-.66-.53-.72.25,0,.26,0,.3-.07.1a8.05,8.05,0,0,0-.41-.78l-.48,1.68c0,.22.06-1.64.06-1.74s-.38.33-.61.52-.14.15-.11,0c.31-.87-.12-.26-.73-.1-.59.4,1.17-1.21,1-1.09l-1.42-.14c-.12,0,1.18-.36,1.09-.34L12.08,1.15C15.17,2.44,14.41,2.68,13.63.24Z"/><path id="eea31152-8504-4dcb-846b-a9caf99f6728" data-name="bbf5f638-f5ec-44bb-a9a4-07a9563c0ad1" class="a879bf10-2ec6-4437-ae8e-2aa7b29ea6f3" d="M14.61,4.7c.42-1.24.31-1.66.81-.61.13-.19-.28-.9.57-.27.37.24-.69-.68-.23-.64L17,3.6c-.34-.25-1.72-.71-1-.8l.4-.06c-1.21-.13-.17-.41.29-.77-.29-.06-1.35.48-.47-.6,1.37-2.08-1.35,1.9-.92.14,0-.12,0-.13,0,0-.33,1-.45,0-.62-.28.18,1.07-.73-.53-.74-.44.29.93.78,1.61.3,1.43S12,1.37,13.05,1.9c1.56.77.47.59.14.82,2.19,0,.2.77-.06,1.29.75-.35,1-.76.95-.14C15.17,2.73,14.54,4.27,14.61,4.7Z"/><path id="ae26c008-f3a0-4247-b1dd-666b1caa73be" data-name="fe3d127e-b3d8-42ca-a363-8a680d1cfa9f" class="e9b8e9f6-8cd4-46d4-b318-4c5b0db3ef2c" d="M14.73,4.1c.39-1.67.69.37.65-.47,0-.36.55.11.41,0-.64-.76.36-.35.49-.3-.55-.25-.75-.46-.22-.56-.7-.11.12-.5.38-.67-.64.08-.87.18-.28-.67.1-.15.09-.12,0,0-.52.52-.87,1-.89.37-.19.51-.41.06-.5-.2-.16.39-.65-.53-.6-.39s.23.62.32.84c.47.83-2.12-.58-.71.22.56.26-.14.41-.27.46,1.52,0,.54.47,0,1,.11,0,.72-.53.66,0C14.9,3,14.78,3.6,14.73,4.1Z"/><path id="e5943b66-ebf2-41ec-a807-f7a21351cdbd" data-name="b3d9bded-281a-4f6a-97ce-56f72da002ac" class="e9b8e9f6-8cd4-46d4-b318-4c5b0db3ef2c" d="M14.26,3.45c1.16-.72,1,1,1.52-1.24-.12-.08-.06-.2-.24,0-.44.14-.68-.25-1-.39.38,1.11-.47.29-.48.8C15.07,2.84,13.84,3.33,14.26,3.45Z"/></g></g></g></g></g></g></g></g></svg>