<svg version="1.1" id="prefix__edit" xmlns="http://www.w3.org/2000/svg" x="0" y="0" viewBox="0 0 1600 1200" xml:space="preserve"><style>.prefix__st4{fill-rule:evenodd;clip-rule:evenodd;fill:#fff;fill-opacity:.9202}.prefix__st7{fill:none;stroke:#000;stroke-width:9.3173;stroke-linecap:round;stroke-miterlimit:16.3382;stroke-opacity:.6862}.prefix__st11{fill-rule:evenodd;clip-rule:evenodd;fill:#fc0}</style><g id="prefix__imagebot_2"><g id="prefix__imagebot_89" transform="translate(-513.645 -682.95) scale(5.30473)"><path id="prefix__imagebot_84" d="M310.3 178.2l-4.8 1.4h-.3c-4.5-.1-9.1.3-13.7 1.4-9.1 2.1-17.8 7.3-25.2 15.9-8.9-3.4-17.2-2.9-20.1 1.9l-2.8 4.7c-28.4-5.9-58.7 6.4-74.3 32.7-19.8 33.2-8.9 76.1 24.4 96 33.2 19.8 76.1 9 96-24.2 15.7-26.3 12.1-58.7-6.6-80.9l2.8-4.7c2.6-4.4-.1-11.1-6.1-16.9 4.8-5.1 9.9-7.9 15.4-9.2 3.2-.7 6.6-.9 10-.7l5.2 2.4.9-3.8 2.9-1.9-3.1-4.7 3.8-5-4-.7-.4-3.7h0z" fill-rule="evenodd" clip-rule="evenodd" stroke="#000" stroke-width="37.269" stroke-miterlimit="16.338"/><path id="prefix__imagebot_83" d="M289.5 307.8c-19.6 33.4-62.5 44.6-95.9 25s-44.6-62.5-25-95.9c.2-.3.3-.6.5-.8 19.6-33.4 62.5-44.6 95.9-25s44.6 62.5 25 95.9c-.1.3-.3.5-.5.8z" fill-rule="evenodd" clip-rule="evenodd" fill="#302d2e" stroke="#000" stroke-width="5.359" stroke-miterlimit="21.219"/><path id="prefix__imagebot_82" d="M272.3 199.8c-10.9-6.5-22.5-6.9-26.1-1l-6.8 11.4c-3.5 5.9 2.4 15.9 13.3 22.3 10.9 6.5 22.6 7 26.1 1.2l6.8-11.4c3.6-5.9-2.4-16-13.3-22.5h0z" fill-rule="evenodd" clip-rule="evenodd" fill="#333031" stroke="#000" stroke-width="18.606" stroke-miterlimit="16.338"/><path id="prefix__imagebot_81" d="M247.3 196.8l-6.2 10.5c-.6 0-1.2-.1-1.7 0-3.5.4-6.3 1.8-7.8 4-4 5.9 2.8 16.1 15.1 22.7 10.8 5.8 22.2 6.9 27.5 3.1-2.8.9-6.5.8-10.5-.1 0 0-.1-.1 0-.1l6.9-13.5c-2-.5-4.1-1.3-6.2-2.3l-6.3 13.4-7.9-3.6 6.8-14c-8.4-6.4-12.8-14.9-9.7-20.1zM191 217.7c-7.4 5.2-13.8 12-18.7 20.2-18.8 31.5-8.5 72.2 23 91 18.5 11 40.1 11.9 58.6 4.5-10.9-1.3-21.7-4.8-31.7-10.8-36.5-21.6-49.6-67.4-31.2-104.9z" fill-rule="evenodd" clip-rule="evenodd" fill-opacity=".489"/><path id="prefix__imagebot_80" class="prefix__st4" d="M279.3 247.8c6.6 7.9 7 18.4.9 23.4s-16.3 2.6-22.9-5.3c-6.6-7.9-7-18.4-.9-23.4s16.4-2.6 22.9 5.3z"/><path id="prefix__imagebot_79" class="prefix__st4" d="M274.5 281.1c3.9 4.7 4.1 10.9.5 13.8s-9.6 1.6-13.5-3.1c-3.9-4.7-4.1-10.9-.5-13.8 3.7-2.9 9.7-1.5 13.5 3.1z"/><path id="prefix__imagebot_78" d="M272.3 199.8c-10.9-6.5-22.5-6.9-26.1-1l-6.8 11.4c-3.5 5.9 2.4 15.9 13.3 22.3 10.9 6.5 22.6 7 26.1 1.2l6.8-11.4c3.6-5.9-2.4-16-13.3-22.5h0z" fill="none" stroke="#000" stroke-width="24.165" stroke-miterlimit="21.219"/><path id="prefix__imagebot_77" d="M295 196.1c-8.1 1.9-15.4 6.7-22.1 18.2l-.5.7c-1.5 1.5-5.3 1.2-8.6-.9-3.5-2.1-5.4-5.1-4.7-7.1.2-.3.7-1.2.7-1.2 8.5-14.1 19.9-22.1 31.8-24.9 4.6-1.1 9.2-1.5 13.7-1.4h.3l4.8-1.3.4 3.5 4 .8-3.9 5 3.2 4.6-3.1 1.9-.9 3.8-5.1-2.4c-3.5-.1-6.9 0-10 .7h0z" fill-rule="evenodd" clip-rule="evenodd" fill="#ccab7f" stroke="#000" stroke-width="18.606" stroke-miterlimit="16.338"/><path id="prefix__imagebot_76" class="prefix__st7" d="M265.9 197.7c-.2 9.5 4.2 15 6.9 15.6"/><path id="prefix__imagebot_75" class="prefix__st7" d="M274.1 190.5c-1.4 9.4 2.2 15.4 4.8 16.3"/><path id="prefix__imagebot_74" class="prefix__st7" d="M283.6 184c-3.2 8.9-.8 15.5 1.6 17"/><path id="prefix__imagebot_73" class="prefix__st7" d="M293.9 180.3c-4.9 8.2-3.7 15.1-1.6 17"/><path id="prefix__imagebot_72" d="M310.3 178.2l-4.7 1.4v-.2-.2-.2c0-.1-.1-.1-.2-.2 0-.1-.1-.1-.2-.2 0-.1-.1-.1-.2-.2H304.4c-.1 0-.1.1-.2.2h-.2c-.1 0-.1.1-.2.2-.2.2-.3.5-.5.7-.9 0-1.8.1-2.8.2l.5 1.4c-.8.1-1.3.4-1.9.7-2.5 1.3.5.9.9 1.7.1.1-2 .8-2.1 1-.2.7.7 2 .5 2.6-.2.7-1.7 1-1.9 1.6-.2.6.7 1.4 1.6 2.1-.3 2.4-.1 4.3.9 5.5 0 .1.1.1.2.2h.2c0 .1.1.1.2.2h.4c.1 0 .1-.1.2-.2h.2c.1 0 .1-.1.2-.2.1 0 .1-.1.2-.2v-.2-.2-.2-.2c0-.1-.1-.1-.2-.2-.2-.3-.4-.9-.5-1.6.4.1 1.8.7 1.9.9.2.3.4.5.5.9h2.4l5.2 2.4.9-3.8 2.9-1.9-3.1-4.7 3.8-5-4-.7-.3-3.4z" fill-opacity=".686"/><g id="prefix__imagebot_4" transform="matrix(.13957 .30066 -.2937 .13836 -103.35 153.57)"><path id="prefix__imagebot_9" d="M718.8-1014.3l-59.9-64.7 6.8 45.1-31.8-61-18.3 51.5-2.2-54L522-978.2l60.1-118.5-64.7 17.5 62.5-49.8-45-9.9 45.2-10.7-97.4-43.9 104.8 23.4-32.4-39.3 41.5 17.3-4.6-48.7 30.6 48.5 17.9-98.7 5.8 98.7 36.3-39.1-4 29.4 50.7-30-53.6 71.4 79.3-1.3-57.6 25.9 100.9 60.7L669-1117l49.8 102.7z" fill-rule="evenodd" clip-rule="evenodd" fill="#a00" stroke="maroon" stroke-width="3"/><path id="prefix__imagebot_8" d="M641.1-1257.8l-13.6 66.6c-.6 2.7-3.2 4.5-5.9 3.9-1.3-.3-2.5-1.1-3.2-2.2l-19.5-30.9 2.6 27.9c.2 2.8-1.8 5.2-4.5 5.4-.9.1-1.8-.1-2.6-.5l-28.5-14.2 25.3 28.4c1.8 2.1 1.7 5.2-.4 7.1-1.2 1.1-2.8 1.5-4.4 1.2l-70.4-15.6 66 26.5c2.6 1 3.8 3.9 2.8 6.5-.6 1.5-1.8 2.5-3.3 3l-29.5 8.2 28.4 2.6c2.8.3 4.8 2.7 4.5 5.5-.1 1.3-.8 2.6-1.8 3.4l-43.6 34.7 41.3-11.2c2.7-.7 5.4.8 6.1 3.5.3 1.2.2 2.5-.4 3.6l-35.7 70.4 58.6-76.4c1.7-2.2 4.8-2.6 7-.9 1.2.9 1.9 2.3 2 3.7l1.2 28.2 9.7-27.2c.9-2.6 3.8-4 6.4-3 1.2.4 2.2 1.3 2.8 2.4l18 34.5-2.3-15.6c-.4-2.7 1.5-5.3 4.2-5.7 1.6-.2 3.2.3 4.4 1.5l37.1 40.1-35.2-72.5c-1.2-2.5-.2-5.5 2.3-6.7 1-.5 2.1-.6 3.2-.4l91.5 19.9-66.1-29.5c-2.5-1.1-3.7-4.1-2.5-6.6.5-1.1 1.4-2 2.5-2.5l35.4-15.9-55 .9c-2.8.1-5.1-2.1-5.1-4.9 0-1.2.4-2.4 1.1-3.3l53.6-65.3-44 31.2c-2.2 1.6-5.4 1.1-7-1.1-.8-1.1-1.1-2.4-.9-3.7l1.9-13.8-25.6 27.5c-1.9 2-5.1 2.1-7.1.2-1-.9-1.6-2.3-1.6-3.6l-.2-65.3z" fill-rule="evenodd" clip-rule="evenodd" fill="#e44f30"/><path id="prefix__imagebot_7" class="prefix__st11" d="M637.7-1223.6l-6.7 33c-.9 4.6-5.5 7.6-10.1 6.6-2.3-.5-4.2-1.8-5.5-3.8l-11.7-18.5 1.3 13.3c.4 4.7-3 8.8-7.7 9.3-1.6.1-3.2-.2-4.6-.9l-12-6 13.1 14.7c3.1 3.5 2.9 8.9-.6 12-2 1.8-4.9 2.6-7.5 2l-28.8-6.4 26.5 10.6c4.4 1.8 6.5 6.7 4.7 11.1-1 2.5-3.1 4.3-5.6 5l-11.1 3.1 9.3.8c4.7.4 8.1 4.6 7.7 9.3-.2 2.3-1.4 4.4-3.2 5.9l-30.4 24.2 25-6.8c4.5-1.2 9.2 1.5 10.4 6 .5 2 .3 4.2-.6 6.1l-18.5 36.6 35.5-46.3c2.9-3.7 8.2-4.4 11.9-1.5 2 1.5 3.2 3.9 3.3 6.4l.4 10.1 3.6-10.1c1.6-4.4 6.5-6.7 10.9-5.2 2 .7 3.7 2.2 4.7 4.1l9.3 17.8c1.1-4.6 5.8-7.3 10.3-6.2 1.6.4 3 1.3 4.2 2.5l21 22.7-24.8-51.3c-2-4.2-.3-9.3 4-11.4 1.7-.8 3.7-1.1 5.5-.7l58.2 12.7-34.9-15.6c-4.3-1.9-6.2-7-4.3-11.2.9-1.9 2.4-3.4 4.3-4.3l19.9-8.9-37.9.6c-4.7.1-8.6-3.6-8.7-8.3 0-2 .6-4 1.9-5.6l37-45.1-22.6 16.1c-3.8 2.7-9.1 1.8-11.9-2-1.3-1.8-1.8-3.9-1.5-6.1l.4-2.8-18 19.4c-3.2 3.4-8.6 3.6-12 .4-1.7-1.6-2.7-3.8-2.7-6.2l-.4-31.2z"/><path id="prefix__imagebot_5" class="prefix__st11" d="M667-1190l-8.4 9.1c-6.3 6.8-16.9 7.1-23.7.8l-.4-.4c-6.5 6.5-17.1 6.5-23.7 0-.4-.4-.8-.8-1.1-1.3-1.8 2.3-4.1 4-6.8 5.1 3.3 7.8.2 16.8-7.2 21 2.1 5.5 1.1 11.8-2.6 16.4 5.5 7.2 4.3 17.6-2.8 23.3l-3.9 3.1c4.7 1.3 8.6 4.6 10.8 9l2.8-3.7c5.6-7.3 16.1-8.7 23.5-3.1.6.4 1.1.9 1.6 1.4 7.9-4.8 18.2-2.3 23 5.6.2.3.4.6.5.9l4.2 8c2.5-1 5.2-1.3 7.9-1l-6.8-14.1c-4-8.3-.6-18.3 7.8-22.4 3.4-1.6 7.2-2.1 10.9-1.3l8.9 1.9c-1.2-4.2-.7-8.7 1.3-12.6l-6.7.1c-9.2.2-16.9-7.2-17-16.5-.1-4 1.3-7.8 3.8-10.9l11.9-14.5c-2.9-.6-5.6-2.1-7.8-4.1v.2z"/></g></g></g></svg>