<?xml version="1.0" encoding="utf-8"?>
<!-- Generator: Adobe Illustrator 24.0.1, SVG Export Plug-In . SVG Version: 6.00 Build 0)  -->
<svg version="1.1" id="edit" xmlns="http://www.w3.org/2000/svg" xmlns:xlink="http://www.w3.org/1999/xlink" x="0px" y="0px"
	 viewBox="0 0 1600 1200" style="enable-background:new 0 0 1600 1200;" xml:space="preserve">
<style type="text/css">
	.st0{fill-rule:evenodd;clip-rule:evenodd;stroke:#000000;stroke-width:37.2691;stroke-miterlimit:16.3382;}
	.st1{fill-rule:evenodd;clip-rule:evenodd;fill:#302D2E;stroke:#000000;stroke-width:5.3594;stroke-miterlimit:21.2189;}
	.st2{fill-rule:evenodd;clip-rule:evenodd;fill:#333031;stroke:#000000;stroke-width:18.6064;stroke-miterlimit:16.3382;}
	.st3{fill-rule:evenodd;clip-rule:evenodd;fill-opacity:0.4894;}
	.st4{fill-rule:evenodd;clip-rule:evenodd;fill:#FFFFFF;fill-opacity:0.9202;}
	.st5{fill:none;stroke:#000000;stroke-width:24.1646;stroke-miterlimit:21.2189;}
	.st6{fill-rule:evenodd;clip-rule:evenodd;fill:#CCAB7F;stroke:#000000;stroke-width:18.6064;stroke-miterlimit:16.3382;}
	.st7{fill:none;stroke:#000000;stroke-width:9.3173;stroke-linecap:round;stroke-miterlimit:16.3382;stroke-opacity:0.6862;}
	.st8{fill-opacity:0.6863;}
	.st9{fill-rule:evenodd;clip-rule:evenodd;fill:#AA0000;stroke:#800000;stroke-width:3;}
	.st10{fill-rule:evenodd;clip-rule:evenodd;fill:#E44F30;}
	.st11{fill-rule:evenodd;clip-rule:evenodd;fill:#FFCC00;}
</style>
<g id="imagebot_2">
	<g id="imagebot_89" transform="translate(-6, -34) matrix(5.30473, 0, 0, 5.30473, -507.645, -648.95)">
		<path id="imagebot_84" class="st0" d="M310.3,178.2l-4.8,1.4c-0.1,0-0.2,0-0.3,0c-4.5-0.1-9.1,0.3-13.7,1.4
			c-9.1,2.1-17.8,7.3-25.2,15.9c-8.9-3.4-17.2-2.9-20.1,1.9l-2.8,4.7c-28.4-5.9-58.7,6.4-74.3,32.7c-19.8,33.2-8.9,76.1,24.4,96
			c33.2,19.8,76.1,9,96-24.2c15.7-26.3,12.1-58.7-6.6-80.9l2.8-4.7c2.6-4.4-0.1-11.1-6.1-16.9c4.8-5.1,9.9-7.9,15.4-9.2
			c3.2-0.7,6.6-0.9,10-0.7l5.2,2.4l0.9-3.8l2.9-1.9l-3.1-4.7l3.8-5l-4-0.7L310.3,178.2L310.3,178.2z"/>
		<path id="imagebot_83" class="st1" d="M289.5,307.8c-19.6,33.4-62.5,44.6-95.9,25s-44.6-62.5-25-95.9c0.2-0.3,0.3-0.6,0.5-0.8
			c19.6-33.4,62.5-44.6,95.9-25s44.6,62.5,25,95.9C289.9,307.3,289.7,307.5,289.5,307.8z"/>
		<path id="imagebot_82" class="st2" d="M272.3,199.8c-10.9-6.5-22.5-6.9-26.1-1l-6.8,11.4c-3.5,5.9,2.4,15.9,13.3,22.3
			c10.9,6.5,22.6,7,26.1,1.2l6.8-11.4C289.2,216.4,283.2,206.3,272.3,199.8L272.3,199.8z"/>
		<path id="imagebot_81" class="st3" d="M247.3,196.8l-6.2,10.5c-0.6,0-1.2-0.1-1.7,0c-3.5,0.4-6.3,1.8-7.8,4
			c-4,5.9,2.8,16.1,15.1,22.7c10.8,5.8,22.2,6.9,27.5,3.1c-2.8,0.9-6.5,0.8-10.5-0.1c0,0-0.1-0.1,0-0.1l6.9-13.5
			c-2-0.5-4.1-1.3-6.2-2.3l-6.3,13.4l-7.9-3.6l6.8-14C248.6,210.5,244.2,202,247.3,196.8L247.3,196.8z M191,217.7
			c-7.4,5.2-13.8,12-18.7,20.2c-18.8,31.5-8.5,72.2,23,91c18.5,11,40.1,11.9,58.6,4.5c-10.9-1.3-21.7-4.8-31.7-10.8
			C185.7,301,172.6,255.2,191,217.7L191,217.7z"/>
		<path id="imagebot_80" class="st4" d="M279.3,247.8c6.6,7.9,7,18.4,0.9,23.4c-6.1,5-16.3,2.6-22.9-5.3c-6.6-7.9-7-18.4-0.9-23.4
			C262.5,237.5,272.8,239.9,279.3,247.8L279.3,247.8z"/>
		<path id="imagebot_79" class="st4" d="M274.5,281.1c3.9,4.7,4.1,10.9,0.5,13.8s-9.6,1.6-13.5-3.1c-3.9-4.7-4.1-10.9-0.5-13.8
			C264.7,275.1,270.7,276.5,274.5,281.1L274.5,281.1z"/>
		<path id="imagebot_78" class="st5" d="M272.3,199.8c-10.9-6.5-22.5-6.9-26.1-1l-6.8,11.4c-3.5,5.9,2.4,15.9,13.3,22.3
			c10.9,6.5,22.6,7,26.1,1.2l6.8-11.4C289.2,216.4,283.2,206.3,272.3,199.8L272.3,199.8z"/>
		<path id="imagebot_77" class="st6" d="M295,196.1c-8.1,1.9-15.4,6.7-22.1,18.2l-0.5,0.7c-1.5,1.5-5.3,1.2-8.6-0.9
			c-3.5-2.1-5.4-5.1-4.7-7.1c0.2-0.3,0.7-1.2,0.7-1.2c8.5-14.1,19.9-22.1,31.8-24.9c4.6-1.1,9.2-1.5,13.7-1.4c0.1,0,0.2,0,0.3,0
			l4.8-1.3l0.4,3.5l4,0.8l-3.9,5l3.2,4.6l-3.1,1.9l-0.9,3.8l-5.1-2.4C301.5,195.3,298.1,195.4,295,196.1L295,196.1z"/>
		<path id="imagebot_76" class="st7" d="M265.9,197.7c-0.2,9.5,4.2,15,6.9,15.6"/>
		<path id="imagebot_75" class="st7" d="M274.1,190.5c-1.4,9.4,2.2,15.4,4.8,16.3"/>
		<path id="imagebot_74" class="st7" d="M283.6,184c-3.2,8.9-0.8,15.5,1.6,17"/>
		<path id="imagebot_73" class="st7" d="M293.9,180.3c-4.9,8.2-3.7,15.1-1.6,17"/>
		<path id="imagebot_72" class="st8" d="M310.3,178.2l-4.7,1.4c0-0.1,0-0.1,0-0.2c0-0.1,0-0.1,0-0.2c0-0.1,0-0.1,0-0.2
			c0-0.1-0.1-0.1-0.2-0.2c0-0.1-0.1-0.1-0.2-0.2c0-0.1-0.1-0.1-0.2-0.2c-0.1,0-0.1,0-0.2,0c-0.1,0-0.1,0-0.2,0c-0.1,0-0.1,0-0.2,0
			c-0.1,0-0.1,0.1-0.2,0.2c-0.1,0-0.1,0-0.2,0c-0.1,0-0.1,0.1-0.2,0.2c-0.2,0.2-0.3,0.5-0.5,0.7c-0.9,0-1.8,0.1-2.8,0.2l0.5,1.4
			c-0.8,0.1-1.3,0.4-1.9,0.7c-2.5,1.3,0.5,0.9,0.9,1.7c0.1,0.1-2,0.8-2.1,1c-0.2,0.7,0.7,2,0.5,2.6c-0.2,0.7-1.7,1-1.9,1.6
			c-0.2,0.6,0.7,1.4,1.6,2.1c-0.3,2.4-0.1,4.3,0.9,5.5c0,0.1,0.1,0.1,0.2,0.2c0.1,0,0.1,0,0.2,0c0,0.1,0.1,0.1,0.2,0.2
			c0.1,0,0.1,0,0.2,0c0.1,0,0.1,0,0.2,0c0.1,0,0.1-0.1,0.2-0.2c0.1,0,0.1,0,0.2,0c0.1,0,0.1-0.1,0.2-0.2c0.1,0,0.1-0.1,0.2-0.2
			c0-0.1,0-0.1,0-0.2c0-0.1,0-0.1,0-0.2c0-0.1,0-0.1,0-0.2c0-0.1,0-0.1,0-0.2c0-0.1-0.1-0.1-0.2-0.2c-0.2-0.3-0.4-0.9-0.5-1.6
			c0.4,0.1,1.8,0.7,1.9,0.9c0.2,0.3,0.4,0.5,0.5,0.9c0.8,0,1.6,0,2.4,0l5.2,2.4l0.9-3.8l2.9-1.9l-3.1-4.7l3.8-5l-4-0.7L310.3,178.2
			L310.3,178.2z"/>
		
			<g id="imagebot_4" transform="rotate(21.6351, 319.278, 189.197) matrix(0.240592, 0.228023, -0.221994, 0.236896, -86.7127, 311.9)">
			<path id="imagebot_9" class="st9" d="M718.8-1014.3l-59.9-64.7l6.8,45.1l-31.8-61l-18.3,51.5l-2.2-54l-91.4,119.2l60.1-118.5
				l-64.7,17.5l62.5-49.8l-45-9.9l45.2-10.7l-97.4-43.9l104.8,23.4l-32.4-39.3l41.5,17.3l-4.6-48.7l30.6,48.5l17.9-98.7l5.8,98.7
				l36.3-39.1l-4,29.4l50.7-30l-53.6,71.4l79.3-1.3l-57.6,25.9l100.9,60.7L669-1117L718.8-1014.3z"/>
			<path id="imagebot_8" class="st10" d="M641.1-1257.8l-13.6,66.6c-0.6,2.7-3.2,4.5-5.9,3.9c-1.3-0.3-2.5-1.1-3.2-2.2l-19.5-30.9
				l2.6,27.9c0.2,2.8-1.8,5.2-4.5,5.4c-0.9,0.1-1.8-0.1-2.6-0.5l-28.5-14.2l25.3,28.4c1.8,2.1,1.7,5.2-0.4,7.1
				c-1.2,1.1-2.8,1.5-4.4,1.2l-70.4-15.6l66,26.5c2.6,1,3.8,3.9,2.8,6.5c-0.6,1.5-1.8,2.5-3.3,3l-29.5,8.2l28.4,2.6
				c2.8,0.3,4.8,2.7,4.5,5.5c-0.1,1.3-0.8,2.6-1.8,3.4l-43.6,34.7l41.3-11.2c2.7-0.7,5.4,0.8,6.1,3.5c0.3,1.2,0.2,2.5-0.4,3.6
				l-35.7,70.4l58.6-76.4c1.7-2.2,4.8-2.6,7-0.9c1.2,0.9,1.9,2.3,2,3.7l1.2,28.2l9.7-27.2c0.9-2.6,3.8-4,6.4-3
				c1.2,0.4,2.2,1.3,2.8,2.4l18,34.5l-2.3-15.6c-0.4-2.7,1.5-5.3,4.2-5.7c1.6-0.2,3.2,0.3,4.4,1.5l37.1,40.1l-35.2-72.5
				c-1.2-2.5-0.2-5.5,2.3-6.7c1-0.5,2.1-0.6,3.2-0.4l91.5,19.9l-66.1-29.5c-2.5-1.1-3.7-4.1-2.5-6.6c0.5-1.1,1.4-2,2.5-2.5
				l35.4-15.9l-55,0.9c-2.8,0.1-5.1-2.1-5.1-4.9c0-1.2,0.4-2.4,1.1-3.3l53.6-65.3l-44,31.2c-2.2,1.6-5.4,1.1-7-1.1
				c-0.8-1.1-1.1-2.4-0.9-3.7l1.9-13.8l-25.6,27.5c-1.9,2-5.1,2.1-7.1,0.2c-1-0.9-1.6-2.3-1.6-3.6L641.1-1257.8L641.1-1257.8z"/>
			<path id="imagebot_7" class="st11" d="M637.7-1223.6l-6.7,33c-0.9,4.6-5.5,7.6-10.1,6.6c-2.3-0.5-4.2-1.8-5.5-3.8l-11.7-18.5
				l1.3,13.3c0.4,4.7-3,8.8-7.7,9.3c-1.6,0.1-3.2-0.2-4.6-0.9l-12-6l13.1,14.7c3.1,3.5,2.9,8.9-0.6,12c-2,1.8-4.9,2.6-7.5,2
				l-28.8-6.4l26.5,10.6c4.4,1.8,6.5,6.7,4.7,11.1c-1,2.5-3.1,4.3-5.6,5l-11.1,3.1l9.3,0.8c4.7,0.4,8.1,4.6,7.7,9.3
				c-0.2,2.3-1.4,4.4-3.2,5.9l-30.4,24.2l25-6.8c4.5-1.2,9.2,1.5,10.4,6c0.5,2,0.3,4.2-0.6,6.1l-18.5,36.6l35.5-46.3
				c2.9-3.7,8.2-4.4,11.9-1.5c2,1.5,3.2,3.9,3.3,6.4l0.4,10.1l3.6-10.1c1.6-4.4,6.5-6.7,10.9-5.2c2,0.7,3.7,2.2,4.7,4.1l9.3,17.8
				c1.1-4.6,5.8-7.3,10.3-6.2c1.6,0.4,3,1.3,4.2,2.5l21,22.7l-24.8-51.3c-2-4.2-0.3-9.3,4-11.4c1.7-0.8,3.7-1.1,5.5-0.7l58.2,12.7
				l-34.9-15.6c-4.3-1.9-6.2-7-4.3-11.2c0.9-1.9,2.4-3.4,4.3-4.3l19.9-8.9l-37.9,0.6c-4.7,0.1-8.6-3.6-8.7-8.3c0-2,0.6-4,1.9-5.6
				l37-45.1l-22.6,16.1c-3.8,2.7-9.1,1.8-11.9-2c-1.3-1.8-1.8-3.9-1.5-6.1l0.4-2.8l-18,19.4c-3.2,3.4-8.6,3.6-12,0.4
				c-1.7-1.6-2.7-3.8-2.7-6.2L637.7-1223.6L637.7-1223.6z"/>
			<path id="imagebot_5" class="st11" d="M667-1190l-8.4,9.1c-6.3,6.8-16.9,7.1-23.7,0.8c-0.1-0.1-0.3-0.3-0.4-0.4
				c-6.5,6.5-17.1,6.5-23.7,0c-0.4-0.4-0.8-0.8-1.1-1.3c-1.8,2.3-4.1,4-6.8,5.1c3.3,7.8,0.2,16.8-7.2,21c2.1,5.5,1.1,11.8-2.6,16.4
				c5.5,7.2,4.3,17.6-2.8,23.3l-3.9,3.1c4.7,1.3,8.6,4.6,10.8,9l2.8-3.7c5.6-7.3,16.1-8.7,23.5-3.1c0.6,0.4,1.1,0.9,1.6,1.4
				c7.9-4.8,18.2-2.3,23,5.6c0.2,0.3,0.4,0.6,0.5,0.9l4.2,8c2.5-1,5.2-1.3,7.9-1l-6.8-14.1c-4-8.3-0.6-18.3,7.8-22.4
				c3.4-1.6,7.2-2.1,10.9-1.3l8.9,1.9c-1.2-4.2-0.7-8.7,1.3-12.6l-6.7,0.1c-9.2,0.2-16.9-7.2-17-16.5c-0.1-4,1.3-7.8,3.8-10.9
				l11.9-14.5c-2.9-0.6-5.6-2.1-7.8-4.1L667-1190z"/>
		</g>
	</g>
</g>
</svg>
