<svg xmlns="http://www.w3.org/2000/svg" xmlns:xlink="http://www.w3.org/1999/xlink" viewBox="0 0 90.64 25.1"><defs><style>.a{fill:url(#a)}.b{font-size:24px;font-family:NiagaraSolid-Reg,Niagara Solid}.c{fill:none;stroke-linecap:round;stroke-miterlimit:10;stroke-width:.59px}.c,.f,.g{stroke:#333}.d,.f{fill:#649623}.e,.g{fill:#8cc63f}.f,.g{stroke-linejoin:round;stroke-width:.68px}.h{fill:#a00;stroke:maroon;stroke-width:.03px}.h,.i,.j{fill-rule:evenodd}.i{fill:#e44f30}.j{fill:#fc0}</style><linearGradient id="a" x1="2.24" x2="96.02" y1="11.12" y2="11.12" gradientUnits="userSpaceOnUse"><stop offset="0" stop-color="#0071bc"/><stop offset=".39" stop-color="#578499"/><stop offset=".89" stop-color="#c69c6d"/></linearGradient></defs><title>melonbonker</title><path d="M28.42,19H25.31v-.43h.59V7.09L24.56,19H23L21.44,7.09V18.54H22V19h-1.8v-.43h.6V2.6h-.6V2.17h2.55l1.65,13.09L25.88,2.17h2.54V2.6h-.59V18.54h.59Z" class="a" transform="translate(-2.29 1.43)"/><path d="M34.81,16.64A2.28,2.28,0,0,1,34,18.38a3,3,0,0,1-3.88,0,2.25,2.25,0,0,1-.78-1.74V8.82a2.28,2.28,0,0,1,.78-1.74,3,3,0,0,1,3.88,0,2.31,2.31,0,0,1,.77,1.74v4.11H31.26v4.76c0,.65.28,1,.84,1s.84-.32.84-1V15.15h1.87Zm-1.87-4.15V7.77q0-1-.84-1t-.84,1v4.72Z" class="a" transform="translate(-2.29 1.43)"/><path d="M38.75,19H35.68v-.43h.6V2.6h-.6V2.17h2.46V18.54h.61Z" class="a" transform="translate(-2.29 1.43)"/><path d="M45,16.64a2.28,2.28,0,0,1-.77,1.74,3,3,0,0,1-3.88,0,2.25,2.25,0,0,1-.78-1.74V8.82a2.28,2.28,0,0,1,.78-1.74,3,3,0,0,1,3.88,0A2.31,2.31,0,0,1,45,8.82Zm-1.88,1.05V7.77c0-.64-.27-1-.83-1s-.84.32-.84,1v9.92c0,.65.28,1,.84,1S43.15,18.34,43.15,17.69Z" class="a" transform="translate(-2.29 1.43)"/><path d="M52.36,19H49.9V7.77c0-.61-.23-.92-.7-.92a1.23,1.23,0,0,0-.87.42V18.54h.61V19H45.86v-.43h.61V6.93h-.61V6.49h2.47v.34a2.11,2.11,0,0,1,1.4-.46c1.36,0,2,.74,2,2.21v10h.59Z" class="a" transform="translate(-2.29 1.43)"/><path d="M59.09,16.52a2.21,2.21,0,0,1-.84,1.73,3,3,0,0,1-2,.72H52.86v-.43h.59V2.6h-.59V2.17h3.35a3,3,0,0,1,2,.72,2.2,2.2,0,0,1,.84,1.73V7.86a2.29,2.29,0,0,1-1.67,2.23,2.35,2.35,0,0,1,1.67,2.24Zm-1.92-7.6V3.56a1,1,0,0,0-1-1h-.83V9.88h.83a1,1,0,0,0,.68-.28A.93.93,0,0,0,57.17,8.92Zm0,8.66V11.27a.93.93,0,0,0-.28-.68,1,1,0,0,0-.68-.28h-.83v8.23h.83a1,1,0,0,0,.68-.28A.93.93,0,0,0,57.17,17.58Z" class="a" transform="translate(-2.29 1.43)"/><path d="M65.84,16.64a2.24,2.24,0,0,1-.77,1.74,3,3,0,0,1-3.88,0,2.24,2.24,0,0,1-.77-1.74V8.82a2.27,2.27,0,0,1,.77-1.74,3,3,0,0,1,3.88,0,2.27,2.27,0,0,1,.77,1.74ZM64,17.69V7.77q0-1-.84-1t-.84,1v9.92c0,.65.28,1,.84,1S64,18.34,64,17.69Z" class="a" transform="translate(-2.29 1.43)"/><path d="M73.18,19H70.72V7.77c0-.61-.24-.92-.71-.92a1.2,1.2,0,0,0-.86.42V18.54h.61V19H66.67v-.43h.61V6.93h-.61V6.49h2.48v.34a2.06,2.06,0,0,1,1.39-.46c1.36,0,2,.74,2,2.21v10h.6Z" class="a" transform="translate(-2.29 1.43)"/><path d="M80,19H77.53L76,12.85v5.69h.61V19H73.49v-.43h.61V2.6h-.61V2.17H76V12l2.4-5.1h-.62V6.49h1.83v.44H79L77.2,10.77l2.11,7.77H80Z" class="a" transform="translate(-2.29 1.43)"/><path d="M86.07,16.64a2.28,2.28,0,0,1-.77,1.74,3,3,0,0,1-3.88,0,2.25,2.25,0,0,1-.78-1.74V8.82a2.28,2.28,0,0,1,.78-1.74,3,3,0,0,1,3.88,0,2.31,2.31,0,0,1,.77,1.74v4.11H82.52v4.76c0,.65.28,1,.84,1s.83-.32.83-1V15.15h1.88Zm-1.88-4.15V7.77c0-.64-.27-1-.83-1s-.84.32-.84,1v4.72Z" class="a" transform="translate(-2.29 1.43)"/><path d="M92.57,10.31H90.7V7.77c0-.61-.19-.92-.58-.92a1,1,0,0,0-.75.42V18.54H90V19H86.9v-.43h.61V6.93H86.9V6.49h2.47v.34a2,2,0,0,1,1.33-.46c1.25,0,1.87.74,1.87,2.21Z" class="a" transform="translate(-2.29 1.43)"/><text class="b" transform="translate(17.59 20.4)">MelonBonker</text><path d="M16.15,9.53a.92.92,0,0,1-.26-.79,3.51,3.51,0,0,1,.61-2,2.16,2.16,0,0,1,1.72-.93,1.25,1.25,0,0,1,1,.45.92.92,0,0,1,.05,1.07.82.82,0,0,1-1.15,0,2,2,0,0,1-.59-1.18,5.13,5.13,0,0,1,.09-2.4" class="c" transform="translate(-2.29 1.43)"/><path d="M17.75,9.86h0s0,.06,0,.08h0l0-.24s0,.06,0,.09S17.75,9.84,17.75,9.86Z" class="d" transform="translate(-2.29 1.43)"/><path d="M17.33,8.24" class="d" transform="translate(-2.29 1.43)"/><path d="M17.59,9.07s0-.05,0-.07,0,0,0,.06Z" class="d" transform="translate(-2.29 1.43)"/><path d="M17.83,11v-.2a.21.21,0,0,0,0,.08Z" class="d" transform="translate(-2.29 1.43)"/><path d="M17.69,9.5l0-.14,0,.12Z" class="d" transform="translate(-2.29 1.43)"/><path d="M17.16,7.84a.36.36,0,0,1,0,.09,1.22,1.22,0,0,1,.07.17,2.33,2.33,0,0,0-.11-.28v0Z" class="d" transform="translate(-2.29 1.43)"/><path d="M17.82,10.5a.28.28,0,0,1,0-.09v0A.17.17,0,0,0,17.82,10.5Z" class="d" transform="translate(-2.29 1.43)"/><path d="M17.82,10.72v0Z" class="d" transform="translate(-2.29 1.43)"/><path d="M17.8,10.35a2.45,2.45,0,0,0,0-.27.25.25,0,0,0,0,.08C17.79,10.22,17.8,10.28,17.8,10.35Z" class="d" transform="translate(-2.29 1.43)"/><path d="M17.81,11.5" class="d" transform="translate(-2.29 1.43)"/><path d="M17.81,11.39c0-.09,0-.19,0-.29a.66.66,0,0,0,0,.14A.76.76,0,0,1,17.81,11.39Z" class="d" transform="translate(-2.29 1.43)"/><path d="M17.83,11.06v0Z" class="d" transform="translate(-2.29 1.43)"/><path d="M17.83,11v0Z" class="e" transform="translate(-2.29 1.43)"/><path d="M17.81,11.39v0Z" class="e" transform="translate(-2.29 1.43)"/><path d="M17.32,8.19l-.05-.09h0A.2.2,0,0,0,17.32,8.19Z" class="e" transform="translate(-2.29 1.43)"/><path d="M17.71,9.59v0a.59.59,0,0,0,0-.13h0Z" class="e" transform="translate(-2.29 1.43)"/><path d="M17.78,10.06v0s0-.08,0-.13h0S17.77,10,17.78,10.06Z" class="e" transform="translate(-2.29 1.43)"/><path d="M17.82,10.5h0Z" class="e" transform="translate(-2.29 1.43)"/><path d="M17.62,9.17l0-.1a.14.14,0,0,1,0,.07Z" class="e" transform="translate(-2.29 1.43)"/><path d="M17.77,11.85a.22.22,0,0,1,0,.08A.22.22,0,0,0,17.77,11.85Z" class="e" transform="translate(-2.29 1.43)"/><path d="M17.13,7.76s0,0,0-.08v0Z" class="e" transform="translate(-2.29 1.43)"/><path d="M17.61,9.12v0a.14.14,0,0,0,0-.07h0S17.6,9.1,17.61,9.12Z" class="e" transform="translate(-2.29 1.43)"/><path d="M17.69,9.48v0h0v0Z" class="e" transform="translate(-2.29 1.43)"/><path d="M17.76,10h0Z" class="e" transform="translate(-2.29 1.43)"/><path d="M17.79,10.16a.25.25,0,0,1,0-.08v0A.34.34,0,0,0,17.79,10.16Z" class="e" transform="translate(-2.29 1.43)"/><path d="M17.21,7.94c0,.06.05.11.07.18v0a1.22,1.22,0,0,0-.07-.17Z" class="e" transform="translate(-2.29 1.43)"/><path d="M17.82,10.64v-.13h0a.17.17,0,0,1,0-.07C17.81,10.5,17.82,10.57,17.82,10.64Z" class="e" transform="translate(-2.29 1.43)"/><path d="M17.83,11.06v0Z" class="e" transform="translate(-2.29 1.43)"/><path d="M17.83,11.09h0Z" class="d" transform="translate(-2.29 1.43)"/><path d="M17.73,9.71s0-.05,0-.08v0S17.73,9.69,17.73,9.71Z" class="d" transform="translate(-2.29 1.43)"/><path d="M17.82,10.72v0Z" class="d" transform="translate(-2.29 1.43)"/><path d="M17.8,10.35v0Z" class="d" transform="translate(-2.29 1.43)"/><path d="M17.58,9V9Z" class="d" transform="translate(-2.29 1.43)"/><path d="M17.33,8.23v0Z" class="d" transform="translate(-2.29 1.43)"/><path d="M17.16,7.82l0-.06,0,0Z" class="d" transform="translate(-2.29 1.43)"/><path d="M17.66,9.36a.24.24,0,0,0,0-.08v0S17.66,9.34,17.66,9.36Z" class="d" transform="translate(-2.29 1.43)"/><path d="M17.83,10.84s0-.06,0-.08v-.12A1.34,1.34,0,0,0,17.83,10.84Z" class="d" transform="translate(-2.29 1.43)"/><path d="M17.81,10.43v0Z" class="d" transform="translate(-2.29 1.43)"/><path d="M17.75,9.86h0s0,.06,0,.08S17.75,9.89,17.75,9.86Z" class="d" transform="translate(-2.29 1.43)"/><path d="M17.16,7.84v0h0Z" class="d" transform="translate(-2.29 1.43)"/><path d="M17.82,11.24a.66.66,0,0,1,0-.14h0v0A1.09,1.09,0,0,0,17.82,11.24Z" class="d" transform="translate(-2.29 1.43)"/><path d="M17.69,9.48h0l0-.12s0,0,0-.06A1.16,1.16,0,0,0,17.69,9.48Z" class="d" transform="translate(-2.29 1.43)"/><path d="M17.73,9.71s0,.06,0,.09,0-.06,0-.09,0,0,0-.06Z" class="d" transform="translate(-2.29 1.43)"/><path d="M17.59,9v0s0,0,0-.06V9Z" class="d" transform="translate(-2.29 1.43)"/><path d="M17.32,8.22h0v0a.25.25,0,0,1,0-.07A.3.3,0,0,1,17.32,8.22Z" class="d" transform="translate(-2.29 1.43)"/><path d="M17.76,10s0,.07,0,.1S17.77,10,17.76,10Z" class="d" transform="translate(-2.29 1.43)"/><path d="M17.15,7.81l0,0,0,0A.47.47,0,0,1,17.15,7.81Z" class="d" transform="translate(-2.29 1.43)"/><path d="M17.71,9.6v0Z" class="d" transform="translate(-2.29 1.43)"/><path d="M17.69,9.48Z" class="d" transform="translate(-2.29 1.43)"/><path d="M17.71,9.6s0,.07,0,.11a.13.13,0,0,1,0-.06Z" class="d" transform="translate(-2.29 1.43)"/><path d="M17.28,8.11c0-.06-.05-.11-.07-.17a2.33,2.33,0,0,1,.11.28A.49.49,0,0,0,17.28,8.11Z" class="d" transform="translate(-2.29 1.43)"/><path d="M17.59,9l0,.08s0,0,0-.06Z" class="d" transform="translate(-2.29 1.43)"/><path d="M17.64,9.28a.43.43,0,0,0,0-.11v0A.29.29,0,0,1,17.64,9.28Z" class="e" transform="translate(-2.29 1.43)"/><path d="M17.47,8.64" class="e" transform="translate(-2.29 1.43)"/><path d="M17.33,8.24h0Z" class="e" transform="translate(-2.29 1.43)"/><path d="M17.2,7.93a.36.36,0,0,0,0-.09h0a.2.2,0,0,1,0,.08Z" class="e" transform="translate(-2.29 1.43)"/><path d="M17.47,8.64c0-.14-.09-.27-.14-.4h0C17.38,8.36,17.43,8.5,17.47,8.64Z" class="e" transform="translate(-2.29 1.43)"/><path d="M17.75,9.86v0Z" class="e" transform="translate(-2.29 1.43)"/><path d="M17.62,9.16v0Z" class="e" transform="translate(-2.29 1.43)"/><path d="M17.69,9.51v.08Z" class="e" transform="translate(-2.29 1.43)"/><path d="M17.69,9.48v0Z" class="e" transform="translate(-2.29 1.43)"/><path d="M17.21,7.94h0Z" class="e" transform="translate(-2.29 1.43)"/><path d="M17.61,9.12v0Z" class="e" transform="translate(-2.29 1.43)"/><path d="M17.63,9.2a.36.36,0,0,0,0,.1v0a.29.29,0,0,0,0-.09Z" class="e" transform="translate(-2.29 1.43)"/><path d="M17.57,9" class="e" transform="translate(-2.29 1.43)"/><path d="M17.33,8.22h0Z" class="e" transform="translate(-2.29 1.43)"/><path d="M17.16,7.84a.2.2,0,0,1,0,.08A.2.2,0,0,0,17.16,7.84Z" class="e" transform="translate(-2.29 1.43)"/><path d="M17.33,8.22" class="e" transform="translate(-2.29 1.43)"/><path d="M17.74,9.8s0-.06,0-.09a.77.77,0,0,0,0,.15h0Z" class="e" transform="translate(-2.29 1.43)"/><path d="M17.57,9a3.37,3.37,0,0,0-.1-.34c.05.13.08.27.12.4Z" class="e" transform="translate(-2.29 1.43)"/><path d="M17.63,9.2l.06.28a1.16,1.16,0,0,1,0-.18A.36.36,0,0,1,17.63,9.2Z" class="e" transform="translate(-2.29 1.43)"/><path d="M17.33,8.22h0Z" class="e" transform="translate(-2.29 1.43)"/><path d="M17.7,9.57v0h0Z" class="e" transform="translate(-2.29 1.43)"/><path d="M17.62,9.16v0h0Z" class="e" transform="translate(-2.29 1.43)"/><path d="M2.63,11.71v-.06h0a5.43,5.43,0,0,1,0-.57c.09-.13.18-.26.26-.4.3-.52.37-1.31.82-1.8a10.5,10.5,0,0,1,1.4-1.34,12.82,12.82,0,0,1,1.61-1A13.62,13.62,0,0,1,8.52,6a14.48,14.48,0,0,1,1.73-.69A12.36,12.36,0,0,1,12.09,5c.63,0,1.23.52,1.8.59s1.12-.1,1.61,0A7.33,7.33,0,0,0,7.94,4.14a8.19,8.19,0,0,0-5.3,7.8v0A1.27,1.27,0,0,1,2.63,11.71Z" class="f" transform="translate(-2.29 1.43)"/><path d="M15.5,5.53" class="e" transform="translate(-2.29 1.43)"/><path d="M2.64,12a1.55,1.55,0,0,0,0,.22.76.76,0,0,1,0-.15Z" class="e" transform="translate(-2.29 1.43)"/><path d="M3.11,14.4l0,.1v0Z" class="e" transform="translate(-2.29 1.43)"/><path d="M2.65,12.2v.05h0Z" class="e" transform="translate(-2.29 1.43)"/><path d="M16.17,6.24" class="e" transform="translate(-2.29 1.43)"/><path d="M2.86,13.59h0v0Z" class="e" transform="translate(-2.29 1.43)"/><path d="M15.88,5.91" class="e" transform="translate(-2.29 1.43)"/><path d="M2.87,13.62a.09.09,0,0,0,0,.05v-.05Z" class="e" transform="translate(-2.29 1.43)"/><path d="M3.56,15.36h0Z" class="e" transform="translate(-2.29 1.43)"/><path d="M3.76,15.72l.05.07,0,0Z" class="e" transform="translate(-2.29 1.43)"/><path d="M3.74,15.67l0,0,0,0Z" class="e" transform="translate(-2.29 1.43)"/><path d="M3.58,15.41a.35.35,0,0,0,0,.08l0,0Z" class="e" transform="translate(-2.29 1.43)"/><path d="M15,14.7l0,0a10.61,10.61,0,0,1-1.43,1.1,13.27,13.27,0,0,1-1.66.78,12.78,12.78,0,0,1-1.72.68,10.36,10.36,0,0,1-1.83.08,9,9,0,0,1-1.81-.06,7.08,7.08,0,0,1-1.72-.56l-.43-.17a7.07,7.07,0,0,0,2,1.57,7.4,7.4,0,0,0,6.16.39,8.21,8.21,0,0,0,5.17-6.17,7.24,7.24,0,0,1-.91,1.5C16.37,14.31,15.56,14.31,15,14.7Z" class="f" transform="translate(-2.29 1.43)"/><path d="M17.76,11.93c0,.15,0,.3-.07.44h0C17.72,12.22,17.75,12.08,17.76,11.93Z" class="f" transform="translate(-2.29 1.43)"/><path d="M4,16v0a.61.61,0,0,0,.07.1l0,0Z" class="e" transform="translate(-2.29 1.43)"/><path d="M4.21,16.35h0l.19.23-.18-.23Z" class="e" transform="translate(-2.29 1.43)"/><path d="M2.74,13v0h0Z" class="e" transform="translate(-2.29 1.43)"/><path d="M3.25,14.75s0,.07,0,.1v0Z" class="e" transform="translate(-2.29 1.43)"/><path d="M2.68,12.6a1.1,1.1,0,0,1,0,.18v-.07A.52.52,0,0,1,2.68,12.6Z" class="e" transform="translate(-2.29 1.43)"/><path d="M2.78,13.21s0,.06,0,.09,0-.05,0-.07Z" class="e" transform="translate(-2.29 1.43)"/><path d="M3.41,15.09a.41.41,0,0,0,0,.09l0,0Z" class="e" transform="translate(-2.29 1.43)"/><path d="M2.71,12.86a.17.17,0,0,1,0,.07v-.07Z" class="e" transform="translate(-2.29 1.43)"/><path d="M2.65,12.26l0,.3a1.36,1.36,0,0,1,0-.2S2.65,12.29,2.65,12.26Z" class="e" transform="translate(-2.29 1.43)"/><path d="M4.4,16.58Z" class="e" transform="translate(-2.29 1.43)"/><path d="M2.74,13a.29.29,0,0,0,0-.09A.29.29,0,0,1,2.74,13Z" class="e" transform="translate(-2.29 1.43)"/><path d="M3.76,15.72h0Z" class="e" transform="translate(-2.29 1.43)"/><path d="M2.68,12.6v0Z" class="e" transform="translate(-2.29 1.43)"/><path d="M3.58,15.41l0,0Z" class="e" transform="translate(-2.29 1.43)"/><path d="M16.08,6.14" class="e" transform="translate(-2.29 1.43)"/><path d="M15.8,5.82l.08.09Z" class="e" transform="translate(-2.29 1.43)"/><path d="M2.65,12.2h0Z" class="e" transform="translate(-2.29 1.43)"/><path d="M15.5,5.53Z" class="e" transform="translate(-2.29 1.43)"/><path d="M3.24,14.72v0Z" class="e" transform="translate(-2.29 1.43)"/><path d="M2.88,13.67v0h0Z" class="e" transform="translate(-2.29 1.43)"/><path d="M3.1,14.38v0h0Z" class="e" transform="translate(-2.29 1.43)"/><path d="M2.79,13.3s0,0,0,.07h0S2.8,13.32,2.79,13.3Z" class="e" transform="translate(-2.29 1.43)"/><path d="M3.39,15l0,.05,0,0Z" class="e" transform="translate(-2.29 1.43)"/><path d="M2.72,12.88v0a.29.29,0,0,1,0,.09v0S2.73,12.93,2.72,12.88Z" class="e" transform="translate(-2.29 1.43)"/><path d="M2.86,13.59Z" class="e" transform="translate(-2.29 1.43)"/><path d="M3.39,15.05l0,0,0,.05Z" class="e" transform="translate(-2.29 1.43)"/><path d="M3.56,15.37h0l0,0,0,0Z" class="e" transform="translate(-2.29 1.43)"/><path d="M2.87,13.64v.06Z" class="e" transform="translate(-2.29 1.43)"/><path d="M2.64,11.91a1.27,1.27,0,0,1,0-.2A1.27,1.27,0,0,0,2.64,11.91Z" class="e" transform="translate(-2.29 1.43)"/><path d="M3.11,14.39h0l0,.08Z" class="e" transform="translate(-2.29 1.43)"/><path d="M2.78,13.23s0,0,0,.07,0,0,0,.07Z" class="e" transform="translate(-2.29 1.43)"/><path d="M3.24,14.72v0l0,.07Z" class="e" transform="translate(-2.29 1.43)"/><path d="M2.64,12a.76.76,0,0,0,0,.15h0v0C2.65,12.17,2.64,12.11,2.64,12Z" class="e" transform="translate(-2.29 1.43)"/><path d="M4,16l0,0Z" class="e" transform="translate(-2.29 1.43)"/><path d="M17.09,7.68c0-.09-.09-.18-.14-.27l0-.06,0-.06L16.74,7l0-.07h0l0,0h0l-.21-.31,0,0a.86.86,0,0,0-.07-.1c-.09-.12-.18-.23-.28-.34a2.2,2.2,0,0,0-.2-.23l-.08-.09c-.09-.1-.19-.19-.3-.29h0c-.49-.08-1.06.09-1.61,0s-1.17-.63-1.8-.59a12.36,12.36,0,0,0-1.84.3A14.48,14.48,0,0,0,8.52,6a13.62,13.62,0,0,0-1.77.6,12.82,12.82,0,0,0-1.61,1,10.5,10.5,0,0,0-1.4,1.34c-.46.49-.52,1.28-.82,1.8a3.94,3.94,0,0,1-.26.4c0,.19,0,.38,0,.57l.23-.21c.41-.38,1.09-.43,1.63-.8s.77-1.05,1.32-1.35S7,9.16,7.6,8.9s1-.62,1.59-.83,1.14-.37,1.69-.53S12,7.2,12.59,7.09s1.17-.45,1.72-.52,1.23.32,1.77.34a3.89,3.89,0,0,1,.49,0h.13V7l0,.06a2.75,2.75,0,0,1,.17.29l0,.07,0,0,.13.28Z" class="g" transform="translate(-2.29 1.43)"/><path d="M2.66,12.36a1.36,1.36,0,0,0,0,.2v0a.52.52,0,0,0,0,.11C2.68,12.59,2.67,12.47,2.66,12.36Z" class="e" transform="translate(-2.29 1.43)"/><path d="M3.74,15.68l0,0h0l0,0Z" class="e" transform="translate(-2.29 1.43)"/><path d="M17.81,11.44l0,0c-.29.26-.81.26-1.27.37a1.37,1.37,0,0,0-.53.21c-.47.32-.76,1.06-1.31,1.37s-1.2.2-1.76.45-1,.71-1.57.93-1.06.71-1.62.87-1.2.25-1.76.37a16.5,16.5,0,0,1-1.79.14,15.34,15.34,0,0,1-1.79.17H4.22l.18.23h0l.43.17a7.08,7.08,0,0,0,1.72.56,9,9,0,0,0,1.81.06,10.36,10.36,0,0,0,1.83-.08,12.78,12.78,0,0,0,1.72-.68,13.27,13.27,0,0,0,1.66-.78A10.61,10.61,0,0,0,15,14.73l0,0c.52-.4,1.33-.39,1.74-.83a7.19,7.19,0,0,0,.92-1.51c0-.14.05-.28.06-.43a.22.22,0,0,0,0-.08c0-.12,0-.24,0-.35v-.11a.76.76,0,0,0,0-.15,1.34,1.34,0,0,1,0,.2Z" class="g" transform="translate(-2.29 1.43)"/><path d="M3,14" class="e" transform="translate(-2.29 1.43)"/><path d="M2.71,12.86a.19.19,0,0,0,0-.08A.19.19,0,0,1,2.71,12.86Z" class="e" transform="translate(-2.29 1.43)"/><path d="M2.78,13.21" class="e" transform="translate(-2.29 1.43)"/><path d="M3,14" class="e" transform="translate(-2.29 1.43)"/><path d="M2.64,12v0Z" class="e" transform="translate(-2.29 1.43)"/><path d="M3.21,14.65l0-.06a.36.36,0,0,1,0-.09l.09.22v0Z" class="e" transform="translate(-2.29 1.43)"/><path d="M2.65,12.26h0Z" class="e" transform="translate(-2.29 1.43)"/><path d="M3.74,15.67" class="e" transform="translate(-2.29 1.43)"/><path d="M3.94,16" class="e" transform="translate(-2.29 1.43)"/><path d="M3.38,15h0l-.07-.15.09.19v0Z" class="e" transform="translate(-2.29 1.43)"/><path d="M2.81,13.37a1.6,1.6,0,0,0,0,.21l0-.11S2.82,13.4,2.81,13.37Z" class="e" transform="translate(-2.29 1.43)"/><path d="M3.56,15.36" class="e" transform="translate(-2.29 1.43)"/><path d="M4.21,16.35" class="e" transform="translate(-2.29 1.43)"/><path d="M3.78,15.74l0,0,.13.19v0C3.89,15.91,3.83,15.83,3.78,15.74Z" class="e" transform="translate(-2.29 1.43)"/><path d="M3.14,14.48v0a.36.36,0,0,0,0,.09Z" class="e" transform="translate(-2.29 1.43)"/><path d="M2.69,12.71v.07a.19.19,0,0,1,0,.08v0Z" class="e" transform="translate(-2.29 1.43)"/><path d="M4.22,16.35A3.92,3.92,0,0,1,4,16l0,0,.2.27h0Z" class="e" transform="translate(-2.29 1.43)"/><path d="M3.6,15.45l0,0a1.74,1.74,0,0,0,.11.18h0Z" class="e" transform="translate(-2.29 1.43)"/><path d="M3.53,15.32h0v0c0-.05,0-.1-.08-.16l0,0,.1.19Z" class="e" transform="translate(-2.29 1.43)"/><path d="M3.29,14.82v0Z" class="e" transform="translate(-2.29 1.43)"/><path d="M2.77,13.2h0l0-.15h0a.85.85,0,0,0,0,.17v0Z" class="e" transform="translate(-2.29 1.43)"/><path d="M2.83,13.47l0,.11h0Z" class="e" transform="translate(-2.29 1.43)"/><path d="M2.64,11.91v0Z" class="e" transform="translate(-2.29 1.43)"/><path d="M2.65,12.24h0s0,.06,0,.1S2.65,12.28,2.65,12.24Z" class="e" transform="translate(-2.29 1.43)"/><path d="M2.63,11.65v0Z" class="e" transform="translate(-2.29 1.43)"/><path d="M3.19,14.59l0,.06v-.06Z" class="e" transform="translate(-2.29 1.43)"/><path d="M3.24,14.71h0v0h0Z" class="e" transform="translate(-2.29 1.43)"/><path d="M3.11,14.38h0Z" class="e" transform="translate(-2.29 1.43)"/><path d="M3.37,15h0Z" class="e" transform="translate(-2.29 1.43)"/><path d="M3.38,15h0v0h0Z" class="e" transform="translate(-2.29 1.43)"/><path d="M2.81,13.37h0s0,.07,0,.1S2.82,13.4,2.81,13.37Z" class="e" transform="translate(-2.29 1.43)"/><path d="M2.89,13.71h0Z" class="e" transform="translate(-2.29 1.43)"/><path d="M3.24,14.71h0l0,.1a1.42,1.42,0,0,0,.08.18h0Z" class="e" transform="translate(-2.29 1.43)"/><path d="M2.81,13.37s0,.06,0,.1l0,.12h0l-.09-.39v0Z" class="e" transform="translate(-2.29 1.43)"/><path d="M2.89,13.7l0-.06Z" class="e" transform="translate(-2.29 1.43)"/><path d="M3.11,14.38h0l0,.09,0,.11v0Z" class="e" transform="translate(-2.29 1.43)"/><path d="M17.15,7.81a.47.47,0,0,0,0-.1L17,7.44l0,0a.59.59,0,0,0,0-.08A2.75,2.75,0,0,0,16.74,7l0-.07-.13,0a4.22,4.22,0,0,0-.49,0c-.54,0-1.13-.4-1.77-.33s-1.11.38-1.72.51-1.12.28-1.71.45-1.12.32-1.69.53-1.06.59-1.59.83S6.33,9,5.82,9.29s-.85,1-1.32,1.35-1.22.42-1.63.8l-.23.21v.06a1.27,1.27,0,0,0,0,.2V12c0,.07,0,.14,0,.2s0,.08,0,.12,0,.23,0,.35a1,1,0,0,0,0,.17.88.88,0,0,1,0,.16l0,.15A1.78,1.78,0,0,0,3.28,13c.49-.27.79-1.09,1.38-1.37s1.16-.25,1.74-.5,1-.6,1.62-.83,1.29.14,1.87-.07,1-.77,1.57-1,1.07-.72,1.62-.89S14.3,8.19,14.84,8s1.29.11,1.82,0l.14,0a1.94,1.94,0,0,0,.36-.15Z" class="f" transform="translate(-2.29 1.43)"/><path d="M17.83,10.84a1.34,1.34,0,0,1,0-.2c0-.07,0-.14,0-.21s0-.18,0-.27a.34.34,0,0,1,0-.1s0-.06,0-.1v0s0,0,0-.08l-.38.21a4.42,4.42,0,0,0-.55.37,6.31,6.31,0,0,1-1,.66c-.51.24-1.21.13-1.79.38s-1,.8-1.54,1-1.29-.12-1.87.09-1.08.59-1.64.78-1.23.08-1.78.25-1,1.1-1.53,1.25-1.23.28-1.76.4a1.72,1.72,0,0,1-.39,0l0,0,.18.31,0,.06c.05.09.11.17.17.26l0,0,.24.32h.16a13.43,13.43,0,0,0,1.79-.17A16.5,16.5,0,0,0,8,16.05c.56-.12,1.17-.2,1.76-.37s1-.66,1.62-.87,1-.69,1.57-.93,1.25-.17,1.75-.45.85-1,1.32-1.37a1.37,1.37,0,0,1,.53-.21c.46-.11,1-.11,1.27-.37l0,0c0-.07,0-.13,0-.2a1.09,1.09,0,0,1,0-.18v-.22Z" class="f" transform="translate(-2.29 1.43)"/><path d="M3.39,15.05l0,.09L3.38,15Z" class="e" transform="translate(-2.29 1.43)"/><path d="M2.87,13.62v0Z" class="e" transform="translate(-2.29 1.43)"/><path d="M2.86,13.59h0v0h0Z" class="e" transform="translate(-2.29 1.43)"/><path d="M2.87,13.62v0h0Z" class="e" transform="translate(-2.29 1.43)"/><path d="M3.38,15h0Z" class="e" transform="translate(-2.29 1.43)"/><path d="M3,14" class="e" transform="translate(-2.29 1.43)"/><path d="M3.23,14.7l0,0Z" class="e" transform="translate(-2.29 1.43)"/><path d="M2.77,13.2h0Z" class="e" transform="translate(-2.29 1.43)"/><path d="M3.53,15.32h0v0Z" class="e" transform="translate(-2.29 1.43)"/><path d="M3.21,14.65l0,0h0s0-.05,0-.08Z" class="e" transform="translate(-2.29 1.43)"/><path d="M3.11,14.38" class="e" transform="translate(-2.29 1.43)"/><path d="M3.38,15h0Z" class="e" transform="translate(-2.29 1.43)"/><path d="M17.73,9.71s0-.07,0-.11a.5.5,0,0,1,0-.12h0l-.06-.28V9.12a.24.24,0,0,1,0-.08c0-.13-.07-.27-.12-.4s-.09-.28-.14-.42h0a2.33,2.33,0,0,0-.11-.28v0a.2.2,0,0,0,0-.08A1.94,1.94,0,0,1,16.8,8l-.14,0c-.53.12-1.2-.16-1.82,0s-1.16.18-1.76.37-1,.69-1.62.89-1,.74-1.57,1-1.33-.15-1.87.07-1.09.6-1.62.83-1.23.26-1.74.5S3.77,12.76,3.28,13a1.54,1.54,0,0,1-.51.17h0l.09.39v.05c0,.13.07.27.12.4a2,2,0,0,0,.12.34l.09.25,0,.08a6.36,6.36,0,0,0,.28.59v0a1.72,1.72,0,0,0,.39,0c.53-.12,1.14-.23,1.76-.4s.93-1.06,1.53-1.25,1.2-.05,1.78-.25,1.07-.56,1.64-.78,1.32.13,1.87-.09,1-.8,1.54-1,1.28-.14,1.79-.38a6.31,6.31,0,0,0,1-.66,4.42,4.42,0,0,1,.55-.37l.38-.21a.77.77,0,0,1,0-.15Z" class="g" transform="translate(-2.29 1.43)"/><path d="M15.92.9s1,1.35,1,1.26-.06-1,0-.78c.65,1.57.33,1.21.88.25,0,0-.1,1.17,0,.94L19.55.67s-1.29,2-1.29,2c.16,0,1.79-.39,1,0-.41.29-1.2.66-.93.64.43.18,1.07.26.5.27s-.72,0-.55.1c.57.37,2.45,1.3,1.22.8-2-.69-1.4-.57-.92.27-1-.52-.67-.53-.73.26,0,.25,0,.29-.06.09a8.29,8.29,0,0,0-.41-.77l-.49,1.67c0,.22.06-1.64.06-1.73s-.38.32-.61.51-.13.15-.1,0c.3-.86-.12-.26-.73-.1-.6.4,1.17-1.2.94-1.09L15,3.43c-.12,0,1.18-.35,1.08-.34L14.38,1.82C17.46,3.1,16.7,3.34,15.92.9Z" class="h" transform="translate(-2.29 1.43)"/><path d="M16.9,5.36c.43-1.24.31-1.65.82-.61.13-.19-.28-.9.57-.27.37.24-.69-.68-.23-.64l1.25.42c-.34-.24-1.73-.7-1-.79.18,0,.45-.06.39-.07-1.2-.13-.17-.41.3-.77-.3-.06-1.35.48-.47-.59,1.36-2.09-1.35,1.9-.93.13,0-.11,0-.13,0,0-.33,1-.44,0-.61-.28.17,1.07-.74-.52-.75-.44.3.94.78,1.61.3,1.43S14.28,2,15.35,2.56c1.56.77.47.59.13.83,2.19,0,.21.76-.05,1.28.75-.35,1-.75.95-.14C17.46,3.39,16.83,4.94,16.9,5.36Z" class="i" transform="translate(-2.29 1.43)"/><path d="M17,4.76c.39-1.66.7.37.65-.47,0-.35.55.11.41,0-.64-.76.37-.35.5-.3-.55-.25-.75-.45-.23-.56-.7-.11.13-.49.39-.66-.64.07-.88.17-.28-.67.1-.16.09-.13,0,0-.51.52-.86,1-.89.36-.18.52-.41.06-.49-.2-.16.39-.65-.53-.6-.38s.23.61.31.84c.47.82-2.11-.59-.7.21.55.27-.15.42-.27.47,1.52,0,.53.46,0,1,.11,0,.71-.54.66,0C17.2,3.66,17.08,4.27,17,4.76Z" class="j" transform="translate(-2.29 1.43)"/><path d="M16.55,4.11c1.16-.72,1,.95,1.52-1.24-.11-.08-.05-.2-.24,0-.43.14-.68-.25-1-.39.37,1.12-.48.29-.48.81C17.36,3.5,16.13,4,16.55,4.11Z" class="j" transform="translate(-2.29 1.43)"/></svg>